<svg width="23" height="23" viewBox="0 0 23 23" fill="none" xmlns="http://www.w3.org/2000/svg">
<path d="M11.28 21.3586C10.6883 21.3586 10.1059 21.1614 9.6457 20.7669L8.16168 19.4989C8.0114 19.3674 7.6357 19.2359 7.43845 19.2359H5.79476C4.40467 19.2359 3.27757 18.1088 3.27757 16.7187V15.1126C3.27757 14.9154 3.14607 14.5397 3.02397 14.3988L1.74659 12.896C0.976399 11.9849 0.976399 10.5572 1.74659 9.63677L3.02397 8.13397C3.14607 7.99308 3.27757 7.61738 3.27757 7.42014V5.82341C3.27757 4.43331 4.40467 3.30621 5.79476 3.30621H7.41967C7.61691 3.30621 7.98322 3.16532 8.14289 3.03383L9.62691 1.76584C10.5474 0.986258 11.9844 0.986258 12.9049 1.76584L14.3889 3.03383C14.5392 3.16532 14.9243 3.29682 15.1215 3.29682H16.7183C18.1084 3.29682 19.2355 4.42392 19.2355 5.81401V7.41074C19.2355 7.60799 19.3764 7.97429 19.5078 8.13397L20.7758 9.61799C21.5648 10.5478 21.5554 11.9849 20.7758 12.896L19.5078 14.38C19.3764 14.5397 19.2449 14.906 19.2449 15.1032V16.6999C19.2449 18.09 18.1178 19.2171 16.7277 19.2171H15.1309C14.9337 19.2171 14.5674 19.358 14.3983 19.4895L12.9143 20.7575C12.4541 21.1614 11.8623 21.3586 11.28 21.3586ZM5.79476 4.71509C5.18425 4.71509 4.68644 5.21289 4.68644 5.82341V7.42014C4.68644 7.95551 4.44224 8.63177 4.09472 9.04504L2.81733 10.5478C2.49799 10.9329 2.49799 11.6092 2.81733 11.9849L4.08532 13.4783C4.42345 13.8634 4.67705 14.5678 4.67705 15.1032V16.7093C4.67705 17.3199 5.17486 17.8177 5.78537 17.8177H7.41967C7.94565 17.8177 8.6407 18.0713 9.05397 18.4188L10.5474 19.6962C10.9325 20.0249 11.6087 20.0249 11.9938 19.6962L13.4778 18.4282C13.9005 18.0713 14.5862 17.8271 15.1121 17.8271H16.7089C17.3194 17.8271 17.8172 17.3292 17.8172 16.7187V15.122C17.8172 14.596 18.0708 13.9104 18.4183 13.4877L19.6957 11.9943C20.0244 11.6092 20.0244 10.9329 19.6957 10.5478L18.4277 9.06383C18.0708 8.64116 17.8266 7.95551 17.8266 7.42953V5.82341C17.8266 5.21289 17.3288 4.71509 16.7183 4.71509H15.1215C14.5862 4.71509 13.8911 4.46149 13.4778 4.11397L11.9844 2.83658C11.5993 2.50785 10.9325 2.50785 10.538 2.83658L9.06336 4.11397C8.6407 4.46149 7.95504 4.71509 7.41967 4.71509H5.79476Z" fill="#737981"/>
<path d="M11.2713 15.8453C10.7547 15.8453 10.332 15.4226 10.332 14.906C10.332 14.3895 10.7453 13.9668 11.2713 13.9668C11.7879 13.9668 12.2105 14.3895 12.2105 14.906C12.2105 15.4226 11.7973 15.8453 11.2713 15.8453Z" fill="#737981"/>
<path d="M11.2708 12.8865C10.8858 12.8865 10.5664 12.5672 10.5664 12.1821V7.63608C10.5664 7.25099 10.8858 6.93164 11.2708 6.93164C11.6559 6.93164 11.9753 7.25099 11.9753 7.63608V12.1727C11.9753 12.5672 11.6653 12.8865 11.2708 12.8865Z" fill="#737981"/>
</svg>
