<svg width="23" height="23" viewBox="0 0 23 23" fill="none" xmlns="http://www.w3.org/2000/svg">
<path d="M20.2499 10.0876L18.9819 8.60363C18.7471 8.32185 18.5498 7.79587 18.5498 7.42017V5.82344C18.5498 4.82784 17.7327 4.01069 16.7371 4.01069H15.1404C14.7647 4.01069 14.2293 3.81344 13.9475 3.57863L12.4635 2.31064C11.8154 1.75648 10.7541 1.75648 10.106 2.31064L8.60316 3.57863C8.32139 3.81344 7.79541 4.01069 7.41971 4.01069H5.7948C4.79919 4.01069 3.98204 4.82784 3.98204 5.82344V7.42017C3.98204 7.78648 3.79419 8.31246 3.55938 8.59424L2.29139 10.0876C1.74662 10.7451 1.74662 11.7971 2.29139 12.4358L3.55938 13.9292C3.79419 14.2016 3.98204 14.7369 3.98204 15.1033V16.7094C3.98204 17.705 4.79919 18.5221 5.7948 18.5221H7.4291C7.79541 18.5221 8.33078 18.7194 8.61256 18.9542L10.0966 20.2222C10.7447 20.7763 11.806 20.7763 12.4541 20.2222L13.9381 18.9542C14.2199 18.7194 14.7459 18.5221 15.1216 18.5221H16.7183C17.7139 18.5221 18.5311 17.705 18.5311 16.7094V15.1126C18.5311 14.7369 18.7283 14.211 18.9631 13.9292L20.2311 12.4452C20.8041 11.8065 20.8041 10.7451 20.2499 10.0876ZM10.5662 7.6362C10.5662 7.25111 10.8855 6.93176 11.2706 6.93176C11.6557 6.93176 11.9751 7.25111 11.9751 7.6362V12.1728C11.9751 12.5579 11.6557 12.8772 11.2706 12.8772C10.8855 12.8772 10.5662 12.5579 10.5662 12.1728V7.6362ZM11.2706 15.8453C10.7541 15.8453 10.3314 15.4226 10.3314 14.906C10.3314 14.3894 10.7447 13.9668 11.2706 13.9668C11.7872 13.9668 12.2099 14.3894 12.2099 14.906C12.2099 15.4226 11.7966 15.8453 11.2706 15.8453Z" fill="#1974FE"/>
</svg>
