<svg width="20" height="20" viewBox="0 0 20 20" fill="none" xmlns="http://www.w3.org/2000/svg">
<g opacity="0.8">
<path d="M17.083 12.7083C16.7413 12.7083 16.458 12.425 16.458 12.0833C16.458 11.7416 16.7413 11.4583 17.083 11.4583C17.5747 11.4583 17.683 11.3833 17.6913 11.3833C17.708 11.3333 17.708 11.0416 17.708 10.8333V9.16663C17.708 8.95829 17.708 8.67496 17.6747 8.59996C17.6663 8.60829 17.5413 8.54163 17.083 8.54163C16.7413 8.54163 16.458 8.25829 16.458 7.91663C16.458 7.57496 16.7413 7.29163 17.083 7.29163C18.8163 7.29163 18.958 8.14163 18.958 9.16663V10.8333C18.958 11.8583 18.8163 12.7083 17.083 12.7083Z" fill="#1974FE"/>
<path d="M5.31665 12.2917C5.26665 12.2917 5.21665 12.2834 5.16665 12.275C4.83331 12.1917 4.62498 11.85 4.70831 11.5167C4.95831 10.525 4.95831 9.47504 4.70831 8.48337C4.62498 8.15004 4.82498 7.80837 5.16665 7.72504C5.49998 7.64171 5.83331 7.85004 5.91665 8.18337C6.21665 9.37504 6.21665 10.6334 5.91665 11.8167C5.84998 12.1 5.59165 12.2917 5.31665 12.2917Z" fill="#1974FE"/>
<path d="M8.23364 12.2917C8.18364 12.2917 8.13364 12.2834 8.08364 12.275C7.75031 12.1917 7.54197 11.85 7.62531 11.5167C7.87531 10.525 7.87531 9.47504 7.62531 8.48337C7.54197 8.15004 7.74197 7.80837 8.08364 7.72504C8.41697 7.6417 8.75864 7.8417 8.84197 8.18337C9.14197 9.37504 9.14197 10.6334 8.84197 11.8167C8.76697 12.1 8.50864 12.2917 8.23364 12.2917Z" fill="#1974FE"/>
<path d="M11.1497 12.2917C11.0997 12.2917 11.0497 12.2834 10.9997 12.275C10.6663 12.1917 10.458 11.85 10.5413 11.5167C10.7913 10.525 10.7913 9.47504 10.5413 8.48337C10.458 8.15004 10.658 7.80837 10.9997 7.72504C11.333 7.6417 11.6747 7.8417 11.758 8.18337C12.058 9.37504 12.058 10.6334 11.758 11.8167C11.683 12.1 11.4247 12.2917 11.1497 12.2917Z" fill="#1974FE"/>
<path d="M10.8337 16.4584H5.83366C2.15866 16.4584 1.04199 15.3417 1.04199 11.6667V8.33335C1.04199 4.65835 2.15866 3.54169 5.83366 3.54169H10.8337C14.5087 3.54169 15.6253 4.65835 15.6253 8.33335V11.6667C15.6253 15.3417 14.5087 16.4584 10.8337 16.4584ZM5.83366 4.79169C2.85866 4.79169 2.29199 5.35835 2.29199 8.33335V11.6667C2.29199 14.6417 2.85866 15.2084 5.83366 15.2084H10.8337C13.8087 15.2084 14.3753 14.6417 14.3753 11.6667V8.33335C14.3753 5.35835 13.8087 4.79169 10.8337 4.79169H5.83366Z" fill="#1974FE"/>
</g>
</svg>
