<svg width="12" height="18" viewBox="0 0 12 18" fill="none" xmlns="http://www.w3.org/2000/svg">
<path d="M6.87253 17.9232C6.64753 17.9232 6.47253 17.8649 6.34753 17.8066C6.04753 17.6649 5.53919 17.2732 5.53919 16.2232V10.8483L1.04754 14.9649C0.79754 15.1983 0.397517 15.1816 0.164183 14.9232C-0.06915 14.6649 -0.0524681 14.2732 0.205865 14.0399L5.53919 9.14825V8.77324L0.205865 3.88157C-0.0524681 3.64824 -0.06915 3.25658 0.164183 2.99824C0.397517 2.74824 0.79754 2.72325 1.04754 2.95659L5.53919 7.07326V1.69825C5.53919 0.648245 6.04753 0.24825 6.34753 0.114917C6.64753 -0.0267497 7.27252 -0.160099 8.08085 0.514901L11.2892 3.18992C11.6392 3.48159 11.8475 3.89826 11.8558 4.33992C11.8642 4.78159 11.6809 5.20657 11.3392 5.5149L7.58919 8.95657L11.3392 12.3982C11.6725 12.7066 11.8642 13.1399 11.8558 13.5732C11.8475 14.0149 11.6392 14.4316 11.2892 14.7232L8.08085 17.3982C7.60585 17.8066 7.1892 17.9232 6.87253 17.9232ZM6.78919 9.92324V16.2232C6.78919 16.5316 6.85586 16.6649 6.88919 16.6816C6.89752 16.6733 7.04752 16.6399 7.28086 16.4483L10.4892 13.7732C10.5642 13.7066 10.6058 13.6316 10.6058 13.5482C10.6058 13.4649 10.5725 13.3899 10.4975 13.3233L6.78919 9.92324ZM6.86419 1.25658C6.85586 1.26491 6.78919 1.40659 6.78919 1.70659V8.00658L10.4975 4.60657C10.5725 4.5399 10.6058 4.46491 10.6058 4.38158C10.6058 4.29825 10.5642 4.22326 10.4892 4.15659L7.27252 1.48157C7.05585 1.29824 6.91419 1.25658 6.86419 1.25658Z" fill="#1974FE"/>
</svg>
