<svg width="23" height="23" viewBox="0 0 23 23" fill="none" xmlns="http://www.w3.org/2000/svg">
<path d="M19.5644 7.52346L13.4123 2.60178C12.2101 1.64374 10.3316 1.63435 9.13873 2.59239L2.98663 7.52346C2.10374 8.2279 1.56836 9.63678 1.75621 10.7451L2.93967 17.8271C3.21205 19.4144 4.68668 20.6636 6.2928 20.6636H16.2489C17.8362 20.6636 19.339 19.3862 19.6114 17.8177L20.7949 10.7357C20.9639 9.63678 20.4285 8.2279 19.5644 7.52346ZM11.9753 16.9066C11.9753 17.2917 11.6559 17.611 11.2708 17.611C10.8857 17.611 10.5664 17.2917 10.5664 16.9066V14.0888C10.5664 13.7037 10.8857 13.3844 11.2708 13.3844C11.6559 13.3844 11.9753 13.7037 11.9753 14.0888V16.9066Z" fill="#1974FE"/>
</svg>
