<svg width="23" height="23" viewBox="0 0 23 23" fill="none" xmlns="http://www.w3.org/2000/svg">
<path d="M11.2708 17.6109C10.8858 17.6109 10.5664 17.2916 10.5664 16.9065V14.0887C10.5664 13.7036 10.8858 13.3843 11.2708 13.3843C11.6559 13.3843 11.9753 13.7036 11.9753 14.0887V16.9065C11.9753 17.2916 11.6559 17.6109 11.2708 17.6109Z" fill="#737981"/>
<path d="M16.5312 21.1895H6.01162C4.30218 21.1895 2.74302 19.8745 2.46125 18.1933L1.21204 10.7074C1.00541 9.54276 1.57835 8.04935 2.50821 7.30734L9.01723 2.09449C10.2758 1.0801 12.2576 1.08949 13.5256 2.10389L20.0347 7.30734C20.9551 8.04935 21.5187 9.54276 21.3308 10.7074L20.0816 18.1839C19.7998 19.8464 18.2031 21.1895 16.5312 21.1895ZM11.262 2.75197C10.7642 2.75197 10.2664 2.90225 9.90012 3.19342L3.39111 8.41566C2.86513 8.83833 2.48942 9.81515 2.60213 10.482L3.85134 17.9585C4.02041 18.9447 5.00662 19.7806 6.01162 19.7806H16.5312C17.5362 19.7806 18.5225 18.9447 18.6915 17.9491L19.9407 10.4726C20.044 9.81515 19.6683 8.81954 19.1518 8.40627L12.6427 3.20281C12.267 2.90225 11.7598 2.75197 11.262 2.75197Z" fill="#737981"/>
</svg>
