<svg width="11" height="21" viewBox="0 0 11 21" fill="none" xmlns="http://www.w3.org/2000/svg">
<path d="M4.6946 13.6319C3.45812 13.6319 2.45241 13.1851 1.69827 12.2981C0.944133 11.4111 0.449211 10.0947 0.161008 8.17957C-0.263368 5.35714 0.157726 2.97824 1.34663 1.48144C2.04663 0.599876 2.96538 0.0901887 4.00335 0.00815744C4.89202 -0.0629363 6.22039 0.297454 7.50335 2.41441C8.30671 3.74003 8.91757 5.50097 9.17953 7.2455C9.49617 9.35152 9.26046 10.9019 8.45875 11.9842C7.82218 12.8439 6.84328 13.3765 5.54882 13.5701C5.26599 13.6117 4.98047 13.6323 4.6946 13.6319ZM6.83671 21C6.11429 21 5.38202 20.7686 4.72249 20.324C3.77083 19.6791 3.11208 18.6847 2.88937 17.5568C2.73351 16.7551 2.82702 16.118 3.17484 15.6078C3.73976 14.7793 4.75367 14.5928 5.82663 14.3948C5.93984 14.374 6.05468 14.3532 6.17117 14.3308C6.41835 14.2838 6.67101 14.2214 6.91601 14.1607C7.83367 13.9343 8.78304 13.6997 9.56671 14.2564C10.0912 14.6283 10.387 15.2605 10.4756 16.188C10.5762 17.2582 10.3466 18.3263 9.82867 19.1958C9.2714 20.1315 8.43578 20.75 7.47711 20.9382C7.26613 20.9793 7.05167 21 6.83671 21Z" fill="#8A8F96"/>
</svg>
