<svg width="141" height="34" viewBox="0 0 141 34" fill="none" xmlns="http://www.w3.org/2000/svg">
<path d="M140.99 20.9483C140.376 21.2658 139.769 21.6076 139.141 21.8902C137.522 22.6193 135.865 22.4623 134.184 22.1379C131.044 21.5309 127.905 20.9239 124.765 20.4111C121.737 19.9192 118.74 20.3099 115.786 21.053C112.733 21.817 109.855 23.0519 106.921 24.1717C106.527 24.3217 106.129 24.5519 105.568 24.2973C105.829 23.3554 106.088 22.417 106.353 21.4821C106.935 19.4448 107.549 17.4145 108.097 15.3702C108.746 12.9702 107.288 11.1631 104.783 11.1666C96.9059 11.1666 89.0289 11.1666 81.1519 11.1666C79.903 11.1666 78.6542 11.1876 77.4018 11.198C76.9649 11.2181 76.5272 11.1794 76.1006 11.0829C78.1579 10.6067 80.2436 10.2629 82.345 10.0538C84.4695 9.80263 86.5904 9.52704 88.9138 9.23401C88.1219 8.37584 87.023 8.46653 86.2765 7.74442C86.4522 7.67496 86.6346 7.62354 86.8207 7.59094C90.8778 7.27697 94.9314 6.95603 98.992 6.67346C103.527 6.35601 108.093 6.06995 112.646 5.78739C114.181 5.68971 115.723 5.64785 117.258 5.54668C117.6 5.55218 117.935 5.44152 118.207 5.23272C119.721 3.51639 121.193 1.74424 122.675 0H123.024C123.275 1.35004 122.864 2.74195 123.202 4.18618L126.848 2.18379C126.883 2.52127 126.883 2.86146 126.848 3.19893C126.631 4.04314 126.373 4.87689 126.129 5.71064C125.857 6.64904 125.581 7.58744 125.295 8.56421C125.644 8.77003 125.954 8.94446 126.261 9.10842C127.284 9.65262 128.302 10.2143 129.338 10.7271C129.662 10.8584 129.944 11.0744 130.155 11.3525C130.366 11.6306 130.499 11.9604 130.538 12.3074C130.563 12.5547 130.648 12.7925 130.784 13.0007C130.919 13.2088 131.103 13.3814 131.32 13.5039C134.55 15.3947 137.777 17.2901 141 19.1901L140.99 20.9483Z" fill="white"/>
<path d="M41.2189 33.5069C41.4037 33.3918 41.6165 33.3813 41.8398 33.2697C42.8337 32.8434 43.7296 32.2179 44.4724 31.4319C45.2152 30.6459 45.789 29.7161 46.1585 28.6997C46.4202 27.9009 46.7516 27.1264 47.0481 26.3415C47.1493 26.0799 47.24 25.8113 47.3342 25.5427C46.5318 26.3101 45.3178 26.338 44.2782 26.3171C42.7084 26.2892 41.1386 26.3171 39.5723 26.3171C39.0218 26.318 38.4738 26.244 37.9432 26.0973C37.5976 26.014 37.2969 25.8018 37.1024 25.5043C36.9079 25.2067 36.8343 24.8461 36.8966 24.4961C36.9702 23.9501 37.0928 23.4119 37.2629 22.8879C38.0792 20.1669 38.9269 17.4529 39.7328 14.7284C39.8688 14.2997 39.9182 13.8482 39.8781 13.4002C39.838 12.9522 39.7091 12.5167 39.499 12.119H47.069C47.0564 12.3291 47.0272 12.5379 46.9818 12.7434C46.012 15.8168 45.0283 18.8832 44.0655 21.953C43.9806 22.2209 43.8532 22.5783 43.7268 22.9328C43.5785 23.3485 43.8565 23.7653 44.2979 23.7712C44.3491 23.7719 44.3987 23.7728 44.4457 23.774C45.3736 23.7984 46.3051 23.7949 47.2365 23.774C47.7877 23.774 48.0388 23.3624 48.1958 22.8949C48.6609 21.4995 49.1261 20.0971 49.5912 18.6878C50.1633 16.9854 50.7354 15.2842 51.3075 13.5842C51.3665 13.444 51.434 13.3077 51.5099 13.176H57.8066C57.8282 13.3264 57.8282 13.4791 57.8066 13.6295C56.0042 18.839 54.196 24.0461 52.382 29.2509C52.2669 29.5788 52.1273 29.8963 51.9983 30.2207C51.2587 32.1115 49.7901 32.9627 47.84 33.165C47.3063 33.2208 46.7586 33.322 46.176 33.3569C44.4492 33.3918 42.9038 33.5069 41.2189 33.5069Z" fill="white"/>
<path d="M16.5585 26.2962C16.9561 25.0159 17.291 23.9135 17.6434 22.8077C18.3097 20.739 18.9655 18.6634 19.6632 16.6052C20.5353 14.0307 21.7772 13.1551 24.2366 13.1167C27.6902 13.0644 31.1438 13.0992 34.5974 13.1167C35.004 13.1257 35.4066 13.1987 35.7904 13.333C36.5265 13.5737 36.9347 14.0586 36.837 14.8295C36.7291 15.8335 36.5365 16.8266 36.2614 17.7982C35.8114 19.389 35.2707 20.9379 34.7683 22.5286C34.6881 22.7763 34.5974 23.024 34.5032 23.2647C33.7811 25.1624 32.4799 26.2613 30.3728 26.2473C29.7344 26.2473 29.0961 26.2787 28.4577 26.2787H16.541L16.5585 26.2962ZM30.5333 15.8761C30.3188 15.7848 30.0956 15.7158 29.867 15.6702C28.9984 15.6493 28.1228 15.6703 27.2611 15.6319C26.3995 15.5935 26.0192 16.047 25.7994 16.7377C25.1715 18.7215 24.5587 20.7134 23.961 22.7135C23.9114 22.9838 23.8916 23.2587 23.9017 23.5333C24.111 23.6344 24.2506 23.7496 24.3657 23.7496C25.4122 23.7705 26.4588 23.8089 27.5053 23.7496C27.8352 23.6666 28.1224 23.4639 28.3111 23.1809C28.5205 22.8674 28.675 22.5206 28.7681 22.1553C29.3007 20.4739 29.8217 18.7866 30.331 17.0936C30.4219 16.692 30.4894 16.2855 30.5333 15.8761Z" fill="white"/>
<path d="M56.2334 26.195C56.3206 25.8461 56.3729 25.5461 56.4671 25.2566C57.4544 22.2844 58.4207 19.3052 59.4428 16.347C60.1021 14.4214 61.3824 13.2074 63.5208 13.1376C63.8976 13.1376 64.2743 13.1202 64.6546 13.1167C67.6442 13.1167 70.6338 13.1167 73.627 13.1167C74.1771 13.1215 74.7253 13.1822 75.2631 13.2981C75.4596 13.3201 75.6498 13.3809 75.8228 13.4768C75.9958 13.5726 76.1481 13.7018 76.271 13.8568C76.3939 14.0117 76.4849 14.1895 76.5388 14.3798C76.5927 14.5701 76.6085 14.7692 76.5852 14.9656C76.5729 15.5464 76.4862 16.1232 76.327 16.6819C75.7305 18.6808 75.1165 20.6762 74.4398 22.6507C74.188 23.4199 73.8235 24.1477 73.3583 24.8101C72.5874 25.8566 71.4222 26.2717 70.1489 26.2787C65.6767 26.2996 61.2045 26.2787 56.7322 26.2787C56.5639 26.265 56.397 26.237 56.2334 26.195ZM65.6279 23.7984V23.7775H66.5C67.6721 23.7565 67.9198 23.6275 68.2896 22.5251C68.9419 20.5716 69.5454 18.604 70.1489 16.6365C70.3408 16.0121 70.1001 15.6528 69.4512 15.6249C68.5826 15.5865 67.707 15.6249 66.8384 15.6249C66.5439 15.6154 66.2552 15.7072 66.0203 15.885C65.7854 16.0628 65.6185 16.3157 65.5476 16.6017C64.8778 18.6738 64.2255 20.7506 63.5906 22.8321C63.4022 23.4565 63.6429 23.76 64.3127 23.7984C64.7558 23.8193 65.1918 23.7984 65.6279 23.7984Z" fill="white"/>
<path d="M93.2536 21.1053C93.058 21.5812 92.8903 22.0681 92.7513 22.5635C92.5908 23.3309 92.9117 23.7216 93.6932 23.7879C93.9827 23.8123 94.2723 23.7879 94.5618 23.7879H103.914C103.799 24.6984 103.423 25.4345 103.164 26.2299C102.962 26.2508 102.795 26.2857 102.627 26.2857C98.2689 26.2857 93.9118 26.2799 89.5558 26.2683C88.947 26.2624 88.339 26.2216 87.7348 26.1461C86.7895 26.031 86.2208 25.4485 86.2662 24.524C86.3119 23.7145 86.4548 22.9133 86.6918 22.1379C87.2674 20.2192 87.9162 18.325 88.5372 16.4237C88.5616 16.34 88.5965 16.2598 88.6279 16.1796C89.5628 13.776 90.5082 13.1167 93.0827 13.1027C96.22 13.0888 99.3596 13.0888 102.502 13.1027C103.023 13.0982 103.543 13.1556 104.05 13.2737C104.933 13.4864 105.338 13.9713 105.327 14.8958C105.315 15.5048 105.224 16.1097 105.059 16.6959C104.692 18.0075 104.267 19.3052 103.855 20.6064C103.785 20.773 103.702 20.9339 103.607 21.0878H93.2536V21.1053ZM98.434 18.5761C98.6643 17.8785 98.8805 17.2994 99.0654 16.6959C99.2817 15.9982 99.0654 15.6493 98.3015 15.6179C97.5191 15.5812 96.7353 15.5882 95.9537 15.6388C95.5833 15.651 95.23 15.7973 94.9595 16.0505C94.4048 16.7482 94.2618 17.6343 94.0525 18.5761H98.434Z" fill="white"/>
<path d="M79.7698 13.1237H85.7735C85.6898 13.4725 85.6165 13.7341 85.5607 14.0028C85.5049 14.2714 85.4735 14.5574 85.4107 14.9377L87.3119 15.0633C87.1845 15.8803 86.9303 16.6724 86.5584 17.411L84.6502 17.5366C84.4409 18.2866 84.2351 19.0052 84.0432 19.7273C83.7886 20.6797 83.5967 21.653 83.2897 22.5914C82.8502 23.931 83.2304 24.974 84.2804 25.8392C84.4056 25.9587 84.5222 26.087 84.6293 26.2229C84.4802 26.2772 84.3259 26.3158 84.1688 26.338C82.599 26.338 81.0292 26.2996 79.4628 26.3031C76.7314 26.3031 75.8244 25.1345 76.5988 22.4937C77 21.1297 77.4814 19.7901 77.9349 18.4401C78.4791 16.8121 79.0279 15.1923 79.5815 13.5806C79.6128 13.4481 79.6826 13.319 79.7698 13.1237Z" fill="white"/>
<path d="M0.515489 24.4054C0.414323 22.7205 1.15737 19.7064 1.15737 19.7064C1.15737 19.7064 1.92484 17.2645 4.59352 9.11539C4.78389 8.40583 5.2058 7.78019 5.7923 7.33779C6.37881 6.89539 7.09628 6.66157 7.83083 6.67345C9.19483 6.62112 10.5623 6.62461 11.9263 6.62112C15.352 6.62112 18.7788 6.62112 22.2069 6.62112C22.5173 6.62112 22.8243 6.65949 23.3092 6.69089C23.0615 7.62231 22.8418 8.43513 22.6115 9.34213C22.2627 9.37004 21.9138 9.41888 21.565 9.41888H12.7635C11.6158 9.41888 11.0612 9.79215 10.6984 10.898C9.78787 13.6539 8.90528 16.4168 8.00526 19.1762C7.78199 19.8739 7.51338 20.5402 7.325 21.2379C7.08429 22.117 7.37384 22.5077 8.29131 22.5356C10.1786 22.5914 12.0658 22.6088 13.9531 22.6437C14.2636 22.6437 14.5776 22.6716 15.0171 22.6925C14.76 23.9238 14.4042 25.1324 13.9531 26.3066H13.0042C10.4193 26.3066 7.83432 26.2822 5.24936 26.3066C3.70745 26.3066 2.18647 26.3066 0.749211 25.6368L0.515489 24.4054Z" fill="white"/>
<path d="M0.108884 23.1734C-0.372314 24.7432 0.80172 26.331 2.44359 26.331H5.67836L1.49567 18.6494L0.108884 23.1734Z" fill="white"/>
<path d="M111.191 27.5764C111.191 26.3819 110.222 25.4135 109.028 25.4135C107.833 25.4135 106.865 26.3819 106.865 27.5764C106.865 28.7709 107.833 29.7394 109.028 29.7394V30.0184C107.679 30.0184 106.586 28.9251 106.586 27.5764C106.586 26.2278 107.679 25.1345 109.028 25.1345C110.377 25.1345 111.47 26.2278 111.47 27.5764C111.47 28.9251 110.377 30.0184 109.028 30.0184V29.7394C110.222 29.7394 111.191 28.7709 111.191 27.5764Z" fill="white"/>
<path d="M108.3 28.8132V26.5299H109.071C109.25 26.5299 109.396 26.5604 109.511 26.6213C109.625 26.6815 109.71 26.7644 109.765 26.8699C109.82 26.9755 109.847 27.0955 109.847 27.2301C109.847 27.3646 109.82 27.4839 109.765 27.5879C109.71 27.692 109.625 27.7738 109.512 27.8332C109.398 27.8919 109.253 27.9213 109.076 27.9213H108.451V27.6716H109.067C109.189 27.6716 109.287 27.6537 109.361 27.618C109.436 27.5824 109.491 27.5318 109.524 27.4664C109.558 27.4003 109.575 27.3215 109.575 27.2301C109.575 27.1386 109.558 27.0587 109.524 26.9903C109.49 26.922 109.435 26.8692 109.36 26.832C109.285 26.7941 109.186 26.7752 109.062 26.7752H108.576V28.8132H108.3ZM109.375 27.7875L109.937 28.8132H109.615L109.062 27.7875H109.375Z" fill="white"/>
</svg>
