<svg width="23" height="23" viewBox="0 0 23 23" fill="none" xmlns="http://www.w3.org/2000/svg">
<path d="M12.332 21.3678C12.0784 21.3678 11.8811 21.3021 11.7403 21.2363C11.4021 21.0767 10.8292 20.6352 10.8292 19.4518V13.3936L5.76662 18.0335C5.48485 18.2965 5.03398 18.2777 4.77099 17.9865C4.508 17.6954 4.5268 17.2539 4.81797 16.9909L10.8292 11.4775V11.0548L4.81797 5.54144C4.5268 5.27845 4.508 4.837 4.77099 4.54583C5.03398 4.26406 5.48485 4.23589 5.76662 4.49888L10.8292 9.13879V3.0806C10.8292 1.89714 11.4021 1.44631 11.7403 1.29603C12.0784 1.13635 12.7828 0.986056 13.6939 1.74685L17.31 4.76187C17.7045 5.09061 17.9393 5.56024 17.9487 6.05804C17.9581 6.55585 17.7515 7.03484 17.3664 7.38236L13.1397 11.2615L17.3664 15.1406C17.7421 15.4881 17.9581 15.9765 17.9487 16.4649C17.9393 16.9627 17.7045 17.4324 17.31 17.7611L13.6939 20.7761C13.1585 21.2363 12.6889 21.3678 12.332 21.3678ZM12.2381 12.351V19.4518C12.2381 19.7993 12.3132 19.9496 12.3508 19.9684C12.3602 19.959 12.5292 19.9214 12.7922 19.7054L16.4083 16.6904C16.4929 16.6152 16.5398 16.5307 16.5398 16.4368C16.5398 16.3428 16.5023 16.2583 16.4177 16.1832L12.2381 12.351ZM12.3226 2.5828C12.3132 2.59219 12.2381 2.75187 12.2381 3.09V10.1907L16.4177 6.35858C16.5023 6.28344 16.5398 6.19892 16.5398 6.10499C16.5398 6.01107 16.4929 5.92655 16.4083 5.85141L12.7828 2.83639C12.5386 2.62975 12.3789 2.5828 12.3226 2.5828Z" fill="#737981"/>
</svg>
