<svg width="23" height="23" viewBox="0 0 23 23" fill="none" xmlns="http://www.w3.org/2000/svg">
<path d="M18.8794 8.65991C17.1793 8.65991 16.4843 7.45766 17.3296 5.98304C17.818 5.12832 17.5268 4.03878 16.6721 3.55037L15.0472 2.62051C14.3052 2.17907 13.3472 2.44206 12.9057 3.18407L12.8024 3.36252C11.9571 4.83715 10.567 4.83715 9.71227 3.36252L9.60895 3.18407C9.18629 2.44206 8.22825 2.17907 7.48624 2.62051L5.86134 3.55037C5.00662 4.03878 4.71545 5.13771 5.20386 5.99243C6.05858 7.45766 5.36353 8.65991 3.66349 8.65991C2.68666 8.65991 1.87891 9.45827 1.87891 10.4445V12.0976C1.87891 13.0744 2.67727 13.8821 3.66349 13.8821C5.36353 13.8821 6.05858 15.0844 5.20386 16.559C4.71545 17.4137 5.00662 18.5033 5.86134 18.9917L7.48624 19.9215C8.22825 20.363 9.18629 20.1 9.62774 19.358L9.73106 19.1795C10.5764 17.7049 11.9665 17.7049 12.8212 19.1795L12.9245 19.358C13.366 20.1 14.324 20.363 15.066 19.9215L16.6909 18.9917C17.5456 18.5033 17.8368 17.4043 17.3484 16.559C16.4937 15.0844 17.1887 13.8821 18.8888 13.8821C19.8656 13.8821 20.6733 13.0838 20.6733 12.0976V10.4445C20.664 9.46766 19.8656 8.65991 18.8794 8.65991ZM11.2714 14.3236C9.59017 14.3236 8.21886 12.9523 8.21886 11.271C8.21886 9.58977 9.59017 8.21846 11.2714 8.21846C12.9527 8.21846 14.324 9.58977 14.324 11.271C14.324 12.9523 12.9527 14.3236 11.2714 14.3236Z" fill="#1974FE"/>
</svg>
