<svg width="23" height="23" viewBox="0 0 23 23" fill="none" xmlns="http://www.w3.org/2000/svg">
<path d="M11.2712 14.7934C9.32697 14.7934 7.74902 13.2155 7.74902 11.2712C7.74902 9.32697 9.32697 7.74902 11.2712 7.74902C13.2155 7.74902 14.7934 9.32697 14.7934 11.2712C14.7934 13.2155 13.2155 14.7934 11.2712 14.7934ZM11.2712 9.1579C10.1065 9.1579 9.1579 10.1065 9.1579 11.2712C9.1579 12.4359 10.1065 13.3845 11.2712 13.3845C12.4359 13.3845 13.3845 12.4359 13.3845 11.2712C13.3845 10.1065 12.4359 9.1579 11.2712 9.1579Z" fill="#737981"/>
<path d="M14.2858 20.842C14.0885 20.842 13.8913 20.8139 13.6941 20.7669C13.1117 20.6072 12.6233 20.2409 12.3134 19.7243L12.2006 19.5365C11.6465 18.5784 10.8857 18.5784 10.3315 19.5365L10.2282 19.7149C9.91827 20.2409 9.42986 20.6166 8.84752 20.7669C8.25579 20.9266 7.64528 20.842 7.12869 20.5321L5.51317 19.6022C4.94023 19.2735 4.52696 18.7381 4.3485 18.09C4.17944 17.4419 4.26397 16.7751 4.59271 16.2021C4.86509 15.7231 4.94023 15.291 4.78056 15.0187C4.62088 14.7463 4.21701 14.5866 3.66285 14.5866C2.29154 14.5866 1.17383 13.4689 1.17383 12.0976V10.4445C1.17383 9.0732 2.29154 7.95549 3.66285 7.95549C4.21701 7.95549 4.62088 7.79582 4.78056 7.52343C4.94023 7.25105 4.87448 6.81899 4.59271 6.33998C4.26397 5.76703 4.17944 5.09077 4.3485 4.45208C4.51757 3.80399 4.93084 3.26862 5.51317 2.93988L7.13808 2.01002C8.19943 1.38072 9.59892 1.74703 10.2376 2.82717L10.3503 3.01502C10.9045 3.97306 11.6653 3.97306 12.2194 3.01502L12.3228 2.83656C12.9614 1.74703 14.3609 1.38072 15.4317 2.01942L17.0472 2.94927C17.6201 3.27801 18.0334 3.81339 18.2119 4.46147C18.3809 5.10956 18.2964 5.77642 17.9677 6.34937C17.6953 6.82839 17.6201 7.26044 17.7798 7.53283C17.9395 7.80521 18.3434 7.96488 18.8975 7.96488C20.2688 7.96488 21.3865 9.08259 21.3865 10.4539V12.107C21.3865 13.4783 20.2688 14.596 18.8975 14.596C18.3434 14.596 17.9395 14.7557 17.7798 15.0281C17.6201 15.3004 17.6859 15.7325 17.9677 16.2115C18.2964 16.7845 18.3903 17.4607 18.2119 18.0994C18.0428 18.7475 17.6295 19.2829 17.0472 19.6116L15.4223 20.5415C15.0654 20.7387 14.6803 20.842 14.2858 20.842ZM11.2708 17.3668C12.1067 17.3668 12.8863 17.8928 13.4217 18.8226L13.525 19.0011C13.6377 19.1983 13.8256 19.3392 14.051 19.3956C14.2764 19.4519 14.5018 19.4238 14.6897 19.3111L16.3146 18.3718C16.5588 18.2309 16.7466 17.9961 16.8218 17.7143C16.8969 17.4325 16.8593 17.1414 16.7185 16.8972C16.1831 15.9767 16.1173 15.0281 16.5306 14.3048C16.9439 13.5816 17.7986 13.1683 18.8693 13.1683C19.4705 13.1683 19.9495 12.6893 19.9495 12.0882V10.4351C19.9495 9.84339 19.4705 9.35498 18.8693 9.35498C17.7986 9.35498 16.9439 8.9417 16.5306 8.21848C16.1173 7.49526 16.1831 6.54661 16.7185 5.62614C16.8593 5.38194 16.8969 5.09077 16.8218 4.80899C16.7466 4.52722 16.5682 4.3018 16.324 4.15152L14.6991 3.22166C14.2952 2.97745 13.7598 3.11834 13.5156 3.53161L13.4123 3.71007C12.8769 4.63993 12.0973 5.16591 11.2614 5.16591C10.4255 5.16591 9.64588 4.63993 9.11051 3.71007L9.00719 3.52222C8.77238 3.12773 8.2464 2.98685 7.84252 3.22166L6.21761 4.16091C5.97341 4.3018 5.78556 4.53661 5.71042 4.81839C5.63528 5.10016 5.67285 5.39133 5.81373 5.63554C6.34911 6.556 6.41486 7.50465 6.00158 8.22787C5.58831 8.9511 4.73359 9.36437 3.66285 9.36437C3.06173 9.36437 2.58271 9.84339 2.58271 10.4445V12.0976C2.58271 12.6893 3.06173 13.1777 3.66285 13.1777C4.73359 13.1777 5.58831 13.591 6.00158 14.3142C6.41486 15.0375 6.34911 15.9861 5.81373 16.9066C5.67285 17.1508 5.63528 17.4419 5.71042 17.7237C5.78556 18.0055 5.96402 18.2309 6.20822 18.3812L7.83313 19.3111C8.03037 19.4332 8.26518 19.4613 8.48121 19.405C8.70663 19.3486 8.89448 19.1983 9.01658 19.0011L9.1199 18.8226C9.65528 17.9022 10.4349 17.3668 11.2708 17.3668Z" fill="#737981"/>
</svg>
