<svg width="11" height="21" viewBox="0 0 11 21" fill="none" xmlns="http://www.w3.org/2000/svg">
<path d="M5.80442 13.6319C7.04091 13.6319 8.04661 13.1851 8.80075 12.2981C9.55489 11.4111 10.0498 10.0947 10.338 8.17957C10.7624 5.35714 10.3413 2.97824 9.15239 1.48144C8.45239 0.599876 7.53364 0.0901887 6.49567 0.00815744C5.607 -0.0629363 4.27864 0.297454 2.99567 2.41441C2.19231 3.74003 1.58145 5.50097 1.3195 7.2455C1.00286 9.35152 1.23856 10.9019 2.04028 11.9842C2.67684 12.8439 3.65575 13.3765 4.9502 13.5701C5.23304 13.6117 5.51855 13.6323 5.80442 13.6319ZM3.66231 21C4.38473 21 5.117 20.7686 5.77653 20.324C6.7282 19.6791 7.38694 18.6847 7.60966 17.5568C7.76551 16.7551 7.672 16.118 7.32419 15.6078C6.75926 14.7793 5.74536 14.5928 4.67239 14.3948C4.55919 14.374 4.44434 14.3532 4.32786 14.3308C4.08067 14.2838 3.82801 14.2214 3.58301 14.1607C2.66536 13.9343 1.71598 13.6997 0.932309 14.2564C0.407856 14.6283 0.111997 15.2605 0.0234032 16.188C-0.0772219 17.2582 0.152465 18.3263 0.670356 19.1958C1.22762 20.1315 2.06325 20.75 3.02192 20.9382C3.23289 20.9793 3.44735 21 3.66231 21Z" fill="#8A8F96"/>
</svg>
