<svg width="16" height="20" viewBox="0 0 16 20" fill="none" xmlns="http://www.w3.org/2000/svg">
<path fill-rule="evenodd" clip-rule="evenodd" d="M8.88565 4.06055C9.27399 4.08277 9.62229 4.22118 9.93057 4.44922C10.1268 4.59679 10.3118 4.75889 10.4843 4.93359C10.5712 5.02042 10.6331 5.13891 10.6874 5.25195C10.933 5.7632 11.1544 6.28797 11.5067 6.73926C11.6623 6.93835 11.8329 7.12648 11.9999 7.31641C12.121 7.45409 12.247 7.58916 12.373 7.72168C12.4383 7.79035 12.521 7.81488 12.6171 7.81836C12.8937 7.82839 13.1705 7.85522 13.4472 7.85938C13.9055 7.86625 14.3638 7.85818 14.8222 7.86133C14.9526 7.86219 15.0865 7.86443 15.2128 7.89258C15.5622 7.97062 15.8511 8.30295 15.8905 8.65234C15.9414 9.10283 15.5996 9.54075 15.1405 9.60938C15.0602 9.62078 14.9785 9.62661 14.8974 9.62598C14.1978 9.62512 13.498 9.62953 12.7987 9.61621C12.4777 9.61004 12.157 9.57129 11.8368 9.53906C11.6532 9.52057 11.4961 9.42782 11.3573 9.3125C11.0216 9.03346 10.6903 8.7491 10.3573 8.46777L10.2812 8.40234C10.2759 8.4126 10.2708 8.42383 10.2665 8.43457C10.0982 8.95114 9.92531 9.46635 9.76358 9.98535C9.68201 10.2466 9.61827 10.5132 9.54971 10.7783C9.52566 10.8715 9.54655 10.9515 9.61807 11.0264C10.4941 11.9433 11.3689 12.8613 12.2421 13.7803C12.4723 14.022 12.571 14.3109 12.5829 14.6436C12.6008 15.1172 12.5255 15.5801 12.4579 16.0449C12.3783 16.5925 12.2997 17.1406 12.2216 17.6885C12.1619 18.1038 12.0991 18.5192 12.0448 18.9346C12.0255 19.0838 12.0184 19.2343 11.953 19.373C11.766 19.7701 11.4543 19.9877 11.0146 20C10.4961 20.0143 10.0903 19.7133 9.95108 19.2344C9.89596 19.0448 9.93161 18.8619 9.96182 18.6758C10.0703 18.0073 10.1778 17.3384 10.2851 16.6699C10.3401 16.3286 10.393 15.9866 10.4501 15.6455C10.4687 15.5339 10.4472 15.4471 10.3622 15.3623C9.52755 14.5288 8.69453 13.6934 7.86416 12.8555C7.84585 12.8373 7.82727 12.8192 7.78897 12.7832C7.75604 13.0174 7.72945 13.2327 7.69424 13.4463C7.5892 14.0861 7.48149 14.7261 7.371 15.3652C7.32317 15.6396 7.26442 15.9125 7.20499 16.1846C7.19068 16.2532 7.15611 16.3189 7.12491 16.3828C7.02763 16.5815 6.86992 16.6944 6.64541 16.7031C6.24985 16.7185 5.85388 16.7523 5.45889 16.7432C4.63552 16.7244 3.81239 16.6802 2.98916 16.6514C2.38329 16.6302 1.77697 16.6176 1.17081 16.6016C0.931116 16.5951 0.699978 16.5507 0.492095 16.4258C0.148644 16.2189 -0.019842 15.9093 0.00186014 15.5117C0.0239236 15.1106 0.227555 14.8154 0.584868 14.6299C0.776198 14.5307 0.988277 14.5069 1.1962 14.499C1.59876 14.4837 2.00219 14.491 2.40518 14.4883C3.25283 14.4827 4.10079 14.4767 4.94815 14.4707C4.98869 14.4707 5.02996 14.4729 5.07022 14.4697C5.1645 14.4622 5.21728 14.4089 5.22745 14.3154C5.29491 13.6773 5.35621 13.0385 5.43155 12.4014C5.4897 11.9144 5.55017 11.4255 5.64053 10.9434C5.73621 10.4337 5.93645 9.95326 6.12295 9.4707C6.33069 8.93273 6.55585 8.40023 6.70987 7.84277C6.77122 7.62006 6.83318 7.39752 6.89444 7.17481C6.90001 7.15481 6.90217 7.13362 6.90616 7.11035C6.81332 7.13901 6.72423 7.1621 6.63956 7.19434C6.346 7.30632 6.05268 7.42005 5.76065 7.53613C5.66659 7.57377 5.60145 7.64074 5.55069 7.73535C5.12921 8.52143 4.70079 9.30451 4.2753 10.0889C4.2051 10.2178 4.14593 10.3541 4.07315 10.4824C3.81015 10.9495 3.00566 11.0476 2.62002 10.5664C2.34225 10.22 2.32347 9.84188 2.55069 9.46094C2.78149 9.07411 2.99284 8.6757 3.20889 8.28027C3.51314 7.72363 3.8155 7.16598 4.11612 6.60742C4.23228 6.38887 4.41017 6.20863 4.62784 6.09082C5.71371 5.49536 6.79926 4.90013 7.8837 4.30371C8.19516 4.13293 8.5269 4.0402 8.88565 4.06055ZM10.0429 2.80256e-07C11.1363 -0.000572782 12.0272 0.877769 12.0312 1.95898C12.0343 3.03338 11.1438 3.91938 10.0565 3.92188C8.95271 3.92503 8.05675 3.04641 8.05752 1.96094C8.05824 0.88087 8.9495 0.000633423 10.0429 2.80256e-07Z" fill="white"/>
</svg>
