<svg width="20" height="20" viewBox="0 0 20 20" fill="none" xmlns="http://www.w3.org/2000/svg">
<g opacity="0.8">
<path d="M18.3337 8.12508C17.992 8.12508 17.7087 7.84175 17.7087 7.50008V5.83342C17.7087 3.68341 16.317 2.29175 14.167 2.29175H5.83366C3.68366 2.29175 2.29199 3.68341 2.29199 5.83342V7.50008C2.29199 7.84175 2.00866 8.12508 1.66699 8.12508C1.32533 8.12508 1.04199 7.84175 1.04199 7.50008V5.83342C1.04199 2.96675 2.96699 1.04175 5.83366 1.04175H14.167C17.0337 1.04175 18.9587 2.96675 18.9587 5.83342V7.50008C18.9587 7.84175 18.6753 8.12508 18.3337 8.12508Z" fill="white"/>
<path d="M14.167 18.9583H5.83366C2.96699 18.9583 1.04199 17.0333 1.04199 14.1667V12.5C1.04199 12.1583 1.32533 11.875 1.66699 11.875C2.00866 11.875 2.29199 12.1583 2.29199 12.5V14.1667C2.29199 16.3167 3.68366 17.7083 5.83366 17.7083H14.167C16.317 17.7083 17.7087 16.3167 17.7087 14.1667V12.5C17.7087 12.1583 17.992 11.875 18.3337 11.875C18.6753 11.875 18.9587 12.1583 18.9587 12.5V14.1667C18.9587 17.0333 17.0337 18.9583 14.167 18.9583Z" fill="white"/>
<path d="M18.3337 10.625H1.66699C1.32533 10.625 1.04199 10.3417 1.04199 10C1.04199 9.65833 1.32533 9.375 1.66699 9.375H18.3337C18.6753 9.375 18.9587 9.65833 18.9587 10C18.9587 10.3417 18.6753 10.625 18.3337 10.625Z" fill="white"/>
</g>
</svg>
