<svg width="13" height="20" viewBox="0 0 13 20" fill="none" xmlns="http://www.w3.org/2000/svg">
<path d="M4.11859 4.82325C4.60075 4.67799 5.07304 4.69193 5.52972 4.91505C5.90021 5.09608 6.15998 5.386 6.33929 5.75391C6.48471 6.05258 6.53343 6.37711 6.59808 6.69727C6.85185 7.95456 7.10479 9.21214 7.35784 10.4697C7.3821 10.59 7.40933 10.7101 7.42913 10.8311C7.43929 10.8922 7.46185 10.9139 7.52777 10.9131C7.86037 10.9091 8.19321 10.9111 8.52581 10.9111H10.9213C11.265 10.9112 11.5876 10.9861 11.8666 11.1943C12.2963 11.5149 12.5073 11.9532 12.5092 12.4834C12.5147 14.1493 12.5112 15.8159 12.5112 17.4815C12.5112 17.9441 12.5143 18.4078 12.5102 18.8711C12.5069 19.198 12.4107 19.4939 12.1596 19.7168C11.8397 20.0007 11.4658 20.0663 11.0639 19.9365C10.6717 19.8097 10.4353 19.5282 10.3461 19.1289C10.3215 19.0088 10.3101 18.8863 10.3119 18.7637C10.3098 17.1746 10.3088 15.5853 10.31 13.9961V13.8848H5.84808C5.54277 13.8847 5.24783 13.8336 4.9721 13.6973C4.48072 13.4539 4.15898 13.0586 4.02093 12.5342C3.90599 12.0977 3.82977 11.651 3.73968 11.208C3.48048 9.93299 3.22289 8.65718 2.96624 7.38184C2.91681 7.13454 2.86609 6.88479 2.84905 6.6338C2.79379 5.81315 3.32887 5.06152 4.11859 4.82325ZM0.385188 8.39259C0.860231 8.07064 1.49208 8.28293 1.69378 8.84474C1.77329 9.06613 1.80741 9.3055 1.85101 9.53809C2.03524 10.525 2.21539 11.513 2.39886 12.5C2.45903 12.8239 2.49883 13.1548 2.5932 13.4688C2.8696 14.3863 3.48558 14.967 4.41644 15.1924C4.65467 15.2499 4.90856 15.2559 5.1557 15.2598C5.98209 15.2728 6.8088 15.2733 7.63519 15.2793C7.9076 15.2811 8.15716 15.3503 8.36077 15.541C8.84774 15.9971 8.64323 16.7957 7.98675 16.9854C7.85145 17.0245 7.70549 17.0377 7.5639 17.042C7.32634 17.0492 7.08774 17.0393 6.85003 17.0381C6.61463 17.0369 6.37856 17.0381 6.143 17.0381V17.0186C5.65955 17.0186 5.17579 17.036 4.6928 17.0147C3.75734 16.9734 2.93067 16.6335 2.21234 16.0361C1.57021 15.5021 1.12407 14.8323 0.887141 14.0322C0.796121 13.7253 0.743161 13.4049 0.684992 13.0889C0.514348 12.1614 0.346723 11.2332 0.183039 10.3047C0.120235 9.95259 0.0470291 9.60097 0.007258 9.2461C-0.0316994 8.89882 0.0850246 8.59633 0.385188 8.39259ZM4.52288 8.54193e-06C5.66145 0.00363266 6.59913 0.934136 6.59222 2.05372C6.58499 3.19757 5.65145 4.12272 4.50726 4.12013C3.35887 4.11752 2.44856 3.19443 2.45062 2.03516C2.45277 0.906986 3.37966 -0.00321614 4.52288 8.54193e-06Z" fill="#727881"/>
</svg>
