<svg width="302" height="302" viewBox="0 0 302 302" fill="none" xmlns="http://www.w3.org/2000/svg">
<g opacity="0.62">
<mask id="path-1-inside-1_8_3468" fill="white">
<path d="M241.853 241.854C250.674 250.675 265.138 250.758 272.542 240.718C285.62 222.983 294.703 202.515 299.037 180.724C304.848 151.513 301.866 121.235 290.468 93.7194C279.071 66.2035 259.77 42.6852 235.006 26.1387C210.242 9.59213 181.128 0.760438 151.345 0.760437C121.562 0.760436 92.4481 9.59212 67.6845 26.1387C42.9208 42.6852 23.6199 66.2035 12.2224 93.7194C0.824946 121.235 -2.15715 151.513 3.65322 180.724C7.98784 202.515 17.0706 222.983 30.1484 240.718C37.5522 250.758 52.0161 250.675 60.8372 241.854C69.6583 233.033 69.4071 218.822 62.6637 208.327C55.5605 197.272 50.5503 184.929 47.9608 171.91C43.8936 151.463 45.981 130.268 53.9593 111.007C61.9375 91.7462 75.4481 75.2834 92.7827 63.7009C110.117 52.1183 130.497 45.9361 151.345 45.9361C172.193 45.9361 192.573 52.1183 209.908 63.7009C227.242 75.2834 240.753 91.7462 248.731 111.007C256.71 130.268 258.797 151.463 254.73 171.91C252.14 184.929 247.13 197.272 240.027 208.327C233.283 218.822 233.032 233.033 241.853 241.854Z"/>
</mask>
<path d="M241.853 241.854C250.674 250.675 265.138 250.758 272.542 240.718C285.62 222.983 294.703 202.515 299.037 180.724C304.848 151.513 301.866 121.235 290.468 93.7194C279.071 66.2035 259.77 42.6852 235.006 26.1387C210.242 9.59213 181.128 0.760438 151.345 0.760437C121.562 0.760436 92.4481 9.59212 67.6845 26.1387C42.9208 42.6852 23.6199 66.2035 12.2224 93.7194C0.824946 121.235 -2.15715 151.513 3.65322 180.724C7.98784 202.515 17.0706 222.983 30.1484 240.718C37.5522 250.758 52.0161 250.675 60.8372 241.854C69.6583 233.033 69.4071 218.822 62.6637 208.327C55.5605 197.272 50.5503 184.929 47.9608 171.91C43.8936 151.463 45.981 130.268 53.9593 111.007C61.9375 91.7462 75.4481 75.2834 92.7827 63.7009C110.117 52.1183 130.497 45.9361 151.345 45.9361C172.193 45.9361 192.573 52.1183 209.908 63.7009C227.242 75.2834 240.753 91.7462 248.731 111.007C256.71 130.268 258.797 151.463 254.73 171.91C252.14 184.929 247.13 197.272 240.027 208.327C233.283 218.822 233.032 233.033 241.853 241.854Z" fill="#161F2E"/>
<path d="M241.853 241.854C250.674 250.675 265.138 250.758 272.542 240.718C285.62 222.983 294.703 202.515 299.037 180.724C304.848 151.513 301.866 121.235 290.468 93.7194C279.071 66.2035 259.77 42.6852 235.006 26.1387C210.242 9.59213 181.128 0.760438 151.345 0.760437C121.562 0.760436 92.4481 9.59212 67.6845 26.1387C42.9208 42.6852 23.6199 66.2035 12.2224 93.7194C0.824946 121.235 -2.15715 151.513 3.65322 180.724C7.98784 202.515 17.0706 222.983 30.1484 240.718C37.5522 250.758 52.0161 250.675 60.8372 241.854C69.6583 233.033 69.4071 218.822 62.6637 208.327C55.5605 197.272 50.5503 184.929 47.9608 171.91C43.8936 151.463 45.981 130.268 53.9593 111.007C61.9375 91.7462 75.4481 75.2834 92.7827 63.7009C110.117 52.1183 130.497 45.9361 151.345 45.9361C172.193 45.9361 192.573 52.1183 209.908 63.7009C227.242 75.2834 240.753 91.7462 248.731 111.007C256.71 130.268 258.797 151.463 254.73 171.91C252.14 184.929 247.13 197.272 240.027 208.327C233.283 218.822 233.032 233.033 241.853 241.854Z" stroke="white" stroke-opacity="0.5" style="mix-blend-mode:overlay" stroke-width="2.4257" mask="url(#path-1-inside-1_8_3468)"/>
</g>
<path d="M252.533 229.518C267.041 210.723 276.014 188.251 278.439 164.633C280.865 141.014 276.648 117.188 266.262 95.8368C255.877 74.4858 239.736 56.4588 219.658 43.7864C199.58 31.1139 176.363 24.2994 152.621 24.1105C128.879 23.9216 105.556 30.3657 85.2787 42.7171C65.0016 55.0685 48.5761 72.8364 37.8524 94.0194C27.1287 115.202 22.5328 138.959 24.5824 162.613C26.632 186.267 35.2457 208.879 49.4532 227.902" stroke="white" style="mix-blend-mode:overlay" stroke-width="3.63855" stroke-linecap="round" stroke-dasharray="3.64 16.98"/>
<g filter="url(#filter0_d_8_3468)">
<circle cx="46" cy="225" r="23" fill="#161F2E"/>
<circle cx="46" cy="225" r="22.3936" stroke="#1974FE" stroke-width="1.21285"/>
</g>
<circle cx="46" cy="225" r="8" fill="#1974FE"/>
<path d="M19.8984 267.5V260.454H20.9189L23.3311 266.333H23.4092L25.8213 260.454H26.8418V267.5H26.0215V262.119H25.5918L26.5781 260.649L23.7412 267.5H22.999L20.167 260.649L21.1484 262.119H20.7188V267.5H19.8984ZM28.6508 267.5V262.236H29.5004V267.5H28.6508ZM29.0805 261.221C28.921 261.221 28.7826 261.164 28.6654 261.05C28.5515 260.933 28.4945 260.794 28.4945 260.635C28.4945 260.472 28.5515 260.334 28.6654 260.22C28.7826 260.106 28.921 260.049 29.0805 260.049C29.2432 260.049 29.3816 260.106 29.4955 260.22C29.6094 260.334 29.6664 260.472 29.6664 260.635C29.6664 260.794 29.6094 260.933 29.4955 261.05C29.3816 261.164 29.2432 261.221 29.0805 261.221ZM31.202 267.5V262.236H32.0516V263.027H32.1297C32.2632 262.747 32.4552 262.531 32.7059 262.378C32.9565 262.222 33.2755 262.144 33.6629 262.144C34.2553 262.144 34.7094 262.313 35.0252 262.651C35.3442 262.987 35.5037 263.467 35.5037 264.092V267.5H34.6541V264.297C34.6541 263.822 34.5532 263.47 34.3514 263.242C34.1528 263.011 33.8436 262.896 33.4236 262.896C33.1437 262.896 32.9012 262.956 32.6961 263.076C32.491 263.197 32.3315 263.368 32.2176 263.589C32.1069 263.81 32.0516 264.076 32.0516 264.385V267.5H31.202ZM37.1613 267.5V262.236H38.0109V267.5H37.1613ZM37.591 261.221C37.4315 261.221 37.2932 261.164 37.176 261.05C37.062 260.933 37.0051 260.794 37.0051 260.635C37.0051 260.472 37.062 260.334 37.176 260.22C37.2932 260.106 37.4315 260.049 37.591 260.049C37.7538 260.049 37.8921 260.106 38.0061 260.22C38.12 260.334 38.177 260.472 38.177 260.635C38.177 260.794 38.12 260.933 38.0061 261.05C37.8921 261.164 37.7538 261.221 37.591 261.221ZM39.7125 267.5V262.236H40.5621V263.037H40.6402C40.7574 262.754 40.9365 262.534 41.1773 262.378C41.4215 262.222 41.7161 262.144 42.0611 262.144C42.2988 262.144 42.512 262.183 42.7008 262.261C42.8896 262.339 43.0523 262.448 43.1891 262.588C43.3258 262.725 43.4348 262.884 43.5162 263.066H43.5943C43.6887 262.881 43.8157 262.72 43.9752 262.583C44.1347 262.443 44.3186 262.336 44.527 262.261C44.7385 262.183 44.9648 262.144 45.2057 262.144C45.5637 262.144 45.8665 262.21 46.1139 262.344C46.3645 262.477 46.5549 262.673 46.6852 262.93C46.8154 263.184 46.8805 263.494 46.8805 263.862V267.5H46.0309V264.058C46.0309 263.797 45.9902 263.582 45.9088 263.413C45.8307 263.241 45.7102 263.112 45.5475 263.027C45.3847 262.939 45.1796 262.896 44.9322 262.896C44.6881 262.896 44.4749 262.951 44.2926 263.062C44.1103 263.172 43.9687 263.32 43.8678 263.506C43.7669 263.688 43.7164 263.892 43.7164 264.116V267.5H42.8668V263.926C42.8668 263.717 42.8212 263.537 42.7301 263.384C42.6422 263.228 42.5152 263.107 42.3492 263.022C42.1865 262.938 41.9944 262.896 41.773 262.896C41.5452 262.896 41.3385 262.956 41.1529 263.076C40.9706 263.197 40.8258 263.359 40.7184 263.564C40.6142 263.766 40.5621 263.991 40.5621 264.238V267.5H39.7125ZM50.2764 267.593C49.8792 267.593 49.5456 267.518 49.2754 267.368C49.0052 267.215 48.8018 266.994 48.665 266.704C48.5316 266.411 48.4648 266.058 48.4648 265.645V262.236H49.3145V265.439C49.3145 265.911 49.4056 266.263 49.5879 266.494C49.7734 266.725 50.0762 266.841 50.4961 266.841C50.7272 266.841 50.9307 266.807 51.1064 266.738C51.2855 266.67 51.4352 266.572 51.5557 266.445C51.6761 266.315 51.7656 266.159 51.8242 265.977C51.8861 265.791 51.917 265.583 51.917 265.352V262.236H52.7666V267.5H51.917V266.714H51.8389C51.7542 266.899 51.6387 267.059 51.4922 267.192C51.3457 267.323 51.1699 267.422 50.9648 267.49C50.763 267.559 50.5335 267.593 50.2764 267.593ZM54.4535 267.5V262.236H55.3031V263.037H55.3812C55.4984 262.754 55.6775 262.534 55.9184 262.378C56.1625 262.222 56.4571 262.144 56.8021 262.144C57.0398 262.144 57.253 262.183 57.4418 262.261C57.6306 262.339 57.7934 262.448 57.9301 262.588C58.0668 262.725 58.1758 262.884 58.2572 263.066H58.3354C58.4298 262.881 58.5567 262.72 58.7162 262.583C58.8757 262.443 59.0596 262.336 59.268 262.261C59.4796 262.183 59.7058 262.144 59.9467 262.144C60.3048 262.144 60.6075 262.21 60.8549 262.344C61.1055 262.477 61.296 262.673 61.4262 262.93C61.5564 263.184 61.6215 263.494 61.6215 263.862V267.5H60.7719V264.058C60.7719 263.797 60.7312 263.582 60.6498 263.413C60.5717 263.241 60.4512 263.112 60.2885 263.027C60.1257 262.939 59.9206 262.896 59.6732 262.896C59.4291 262.896 59.2159 262.951 59.0336 263.062C58.8513 263.172 58.7097 263.32 58.6088 263.506C58.5079 263.688 58.4574 263.892 58.4574 264.116V267.5H57.6078V263.926C57.6078 263.717 57.5622 263.537 57.4711 263.384C57.3832 263.228 57.2562 263.107 57.0902 263.022C56.9275 262.938 56.7354 262.896 56.5141 262.896C56.2862 262.896 56.0795 262.956 55.8939 263.076C55.7117 263.197 55.5668 263.359 55.4594 263.564C55.3552 263.766 55.3031 263.991 55.3031 264.238V267.5H54.4535ZM67.9445 269.258C67.6288 268.838 67.3684 268.392 67.1633 267.92C66.9582 267.448 66.8052 266.945 66.7043 266.411C66.6066 265.877 66.5578 265.308 66.5578 264.702C66.5578 264.097 66.6066 263.529 66.7043 262.998C66.802 262.464 66.9533 261.961 67.1584 261.489C67.3635 261.014 67.6255 260.566 67.9445 260.146H68.6574C68.4816 260.371 68.3173 260.654 68.1643 260.996C68.0145 261.338 67.8843 261.715 67.7736 262.129C67.663 262.539 67.5767 262.965 67.5148 263.408C67.453 263.848 67.4221 264.279 67.4221 264.702C67.4221 265.129 67.453 265.563 67.5148 266.006C67.5767 266.445 67.663 266.872 67.7736 267.285C67.8843 267.695 68.0145 268.07 68.1643 268.408C68.3173 268.75 68.4816 269.033 68.6574 269.258H67.9445ZM72.4391 267.666C71.9182 267.666 71.4723 267.516 71.1012 267.217C70.7333 266.917 70.4501 266.493 70.2516 265.942C70.053 265.389 69.9537 264.735 69.9537 263.979V263.97C69.9537 263.215 70.053 262.562 70.2516 262.012C70.4501 261.462 70.7333 261.037 71.1012 260.737C71.4723 260.438 71.9182 260.288 72.4391 260.288C72.9599 260.288 73.4059 260.438 73.777 260.737C74.148 261.037 74.4329 261.462 74.6314 262.012C74.8333 262.562 74.9342 263.215 74.9342 263.97V263.979C74.9342 264.735 74.8333 265.389 74.6314 265.942C74.4329 266.493 74.148 266.917 73.777 267.217C73.4059 267.516 72.9599 267.666 72.4391 267.666ZM72.4391 266.899C72.7776 266.899 73.0657 266.781 73.3033 266.543C73.5442 266.305 73.7281 265.968 73.8551 265.532C73.9853 265.096 74.0504 264.578 74.0504 263.979V263.97C74.0504 263.371 73.9853 262.855 73.8551 262.422C73.7281 261.986 73.5442 261.65 73.3033 261.416C73.0657 261.178 72.7776 261.06 72.4391 261.06C72.1038 261.06 71.8157 261.178 71.5748 261.416C71.3372 261.65 71.1549 261.986 71.0279 262.422C70.901 262.855 70.8375 263.371 70.8375 263.97V263.979C70.8375 264.578 70.901 265.096 71.0279 265.532C71.1549 265.968 71.3372 266.305 71.5748 266.543C71.8157 266.781 72.1038 266.899 72.4391 266.899ZM76.9434 269.258H76.2305C76.4062 269.033 76.569 268.75 76.7188 268.408C76.8717 268.07 77.0036 267.695 77.1143 267.285C77.2249 266.872 77.3112 266.445 77.373 266.006C77.4349 265.563 77.4658 265.129 77.4658 264.702C77.4658 264.279 77.4349 263.848 77.373 263.408C77.3112 262.965 77.2249 262.539 77.1143 262.129C77.0036 261.715 76.8717 261.338 76.7188 260.996C76.569 260.654 76.4062 260.371 76.2305 260.146H76.9434C77.2624 260.566 77.5244 261.014 77.7295 261.489C77.9346 261.961 78.0859 262.464 78.1836 262.998C78.2812 263.529 78.3301 264.097 78.3301 264.702C78.3301 265.308 78.2796 265.877 78.1787 266.411C78.0811 266.945 77.9297 267.448 77.7246 267.92C77.5228 268.392 77.2624 268.838 76.9434 269.258Z" fill="#858E9B"/>
<path d="M225.898 267.5V260.454H226.919L229.331 266.333H229.409L231.821 260.454H232.842V267.5H232.021V262.119H231.592L232.578 260.649L229.741 267.5H228.999L226.167 260.649L227.148 262.119H226.719V267.5H225.898ZM236.077 267.593C235.745 267.593 235.445 267.529 235.178 267.402C234.914 267.275 234.704 267.095 234.548 266.86C234.395 266.626 234.319 266.349 234.319 266.03V266.021C234.319 265.708 234.394 265.441 234.543 265.22C234.693 264.995 234.911 264.819 235.198 264.692C235.484 264.565 235.831 264.491 236.238 264.468L238.171 264.351V265.029L236.34 265.146C235.94 265.169 235.647 265.252 235.461 265.396C235.279 265.539 235.188 265.741 235.188 266.001V266.011C235.188 266.278 235.289 266.486 235.491 266.636C235.692 266.782 235.946 266.855 236.252 266.855C236.542 266.855 236.799 266.799 237.024 266.685C237.248 266.567 237.424 266.41 237.551 266.211C237.681 266.012 237.746 265.788 237.746 265.537V263.896C237.746 263.571 237.647 263.324 237.449 263.154C237.253 262.982 236.959 262.896 236.565 262.896C236.249 262.896 235.99 262.952 235.788 263.066C235.587 263.177 235.452 263.335 235.383 263.54L235.378 263.555H234.529L234.534 263.525C234.579 263.249 234.693 263.008 234.875 262.803C235.061 262.594 235.3 262.433 235.593 262.319C235.886 262.202 236.22 262.144 236.594 262.144C237.024 262.144 237.387 262.214 237.683 262.354C237.982 262.493 238.209 262.695 238.362 262.959C238.518 263.219 238.596 263.532 238.596 263.896V267.5H237.746V266.724H237.668C237.558 266.909 237.423 267.067 237.263 267.197C237.107 267.327 236.929 267.427 236.731 267.495C236.532 267.56 236.314 267.593 236.077 267.593ZM239.829 267.5L241.631 264.868L239.809 262.236H240.81L242.06 264.194H242.138L243.374 262.236H244.326L242.539 264.834L244.35 267.5H243.354L242.109 265.513H242.031L240.781 267.5H239.829ZM245.612 267.5V262.236H246.462V267.5H245.612ZM246.042 261.221C245.883 261.221 245.744 261.164 245.627 261.05C245.513 260.933 245.456 260.794 245.456 260.635C245.456 260.472 245.513 260.334 245.627 260.22C245.744 260.106 245.883 260.049 246.042 260.049C246.205 260.049 246.343 260.106 246.457 260.22C246.571 260.334 246.628 260.472 246.628 260.635C246.628 260.794 246.571 260.933 246.457 261.05C246.343 261.164 246.205 261.221 246.042 261.221ZM248.164 267.5V262.236H249.013V263.037H249.091C249.209 262.754 249.388 262.534 249.629 262.378C249.873 262.222 250.167 262.144 250.512 262.144C250.75 262.144 250.963 262.183 251.152 262.261C251.341 262.339 251.504 262.448 251.64 262.588C251.777 262.725 251.886 262.884 251.967 263.066H252.046C252.14 262.881 252.267 262.72 252.426 262.583C252.586 262.443 252.77 262.336 252.978 262.261C253.19 262.183 253.416 262.144 253.657 262.144C254.015 262.144 254.318 262.21 254.565 262.344C254.816 262.477 255.006 262.673 255.136 262.93C255.267 263.184 255.332 263.494 255.332 263.862V267.5H254.482V264.058C254.482 263.797 254.441 263.582 254.36 263.413C254.282 263.241 254.161 263.112 253.999 263.027C253.836 262.939 253.631 262.896 253.383 262.896C253.139 262.896 252.926 262.951 252.744 263.062C252.561 263.172 252.42 263.32 252.319 263.506C252.218 263.688 252.168 263.892 252.168 264.116V267.5H251.318V263.926C251.318 263.717 251.272 263.537 251.181 263.384C251.093 263.228 250.966 263.107 250.8 263.022C250.638 262.938 250.446 262.896 250.224 262.896C249.996 262.896 249.79 262.956 249.604 263.076C249.422 263.197 249.277 263.359 249.17 263.564C249.065 263.766 249.013 263.991 249.013 264.238V267.5H248.164ZM258.728 267.593C258.33 267.593 257.997 267.518 257.727 267.368C257.456 267.215 257.253 266.994 257.116 266.704C256.983 266.411 256.916 266.058 256.916 265.645V262.236H257.766V265.439C257.766 265.911 257.857 266.263 258.039 266.494C258.225 266.725 258.527 266.841 258.947 266.841C259.178 266.841 259.382 266.807 259.558 266.738C259.737 266.67 259.886 266.572 260.007 266.445C260.127 266.315 260.217 266.159 260.275 265.977C260.337 265.791 260.368 265.583 260.368 265.352V262.236H261.218V267.5H260.368V266.714H260.29C260.205 266.899 260.09 267.059 259.943 267.192C259.797 267.323 259.621 267.422 259.416 267.49C259.214 267.559 258.985 267.593 258.728 267.593ZM262.905 267.5V262.236H263.754V263.037H263.832C263.95 262.754 264.129 262.534 264.37 262.378C264.614 262.222 264.908 262.144 265.253 262.144C265.491 262.144 265.704 262.183 265.893 262.261C266.082 262.339 266.245 262.448 266.381 262.588C266.518 262.725 266.627 262.884 266.708 263.066H266.787C266.881 262.881 267.008 262.72 267.167 262.583C267.327 262.443 267.511 262.336 267.719 262.261C267.931 262.183 268.157 262.144 268.398 262.144C268.756 262.144 269.059 262.21 269.306 262.344C269.557 262.477 269.747 262.673 269.877 262.93C270.008 263.184 270.073 263.494 270.073 263.862V267.5H269.223V264.058C269.223 263.797 269.182 263.582 269.101 263.413C269.023 263.241 268.902 263.112 268.74 263.027C268.577 262.939 268.372 262.896 268.124 262.896C267.88 262.896 267.667 262.951 267.485 263.062C267.302 263.172 267.161 263.32 267.06 263.506C266.959 263.688 266.909 263.892 266.909 264.116V267.5H266.059V263.926C266.059 263.717 266.013 263.537 265.922 263.384C265.834 263.228 265.707 263.107 265.541 263.022C265.379 262.938 265.187 262.896 264.965 262.896C264.737 262.896 264.531 262.956 264.345 263.076C264.163 263.197 264.018 263.359 263.911 263.564C263.806 263.766 263.754 263.991 263.754 264.238V267.5H262.905ZM276.396 269.258C276.08 268.838 275.82 268.392 275.614 267.92C275.409 267.448 275.256 266.945 275.155 266.411C275.058 265.877 275.009 265.308 275.009 264.702C275.009 264.097 275.058 263.529 275.155 262.998C275.253 262.464 275.404 261.961 275.61 261.489C275.815 261.014 276.077 260.566 276.396 260.146H277.109C276.933 260.371 276.768 260.654 276.615 260.996C276.466 261.338 276.335 261.715 276.225 262.129C276.114 262.539 276.028 262.965 275.966 263.408C275.904 263.848 275.873 264.279 275.873 264.702C275.873 265.129 275.904 265.563 275.966 266.006C276.028 266.445 276.114 266.872 276.225 267.285C276.335 267.695 276.466 268.07 276.615 268.408C276.768 268.75 276.933 269.033 277.109 269.258H276.396ZM278.532 267.5V266.895L280.915 264.316C281.214 263.991 281.449 263.722 281.618 263.511C281.787 263.296 281.906 263.102 281.974 262.93C282.043 262.757 282.077 262.568 282.077 262.363V262.354C282.077 262.106 282.023 261.885 281.916 261.689C281.808 261.494 281.655 261.34 281.457 261.226C281.258 261.112 281.02 261.055 280.744 261.055C280.464 261.055 280.218 261.113 280.006 261.23C279.795 261.344 279.63 261.506 279.513 261.714C279.396 261.919 279.338 262.16 279.338 262.437L279.333 262.446L278.493 262.441L278.483 262.437C278.486 262.02 278.587 261.65 278.786 261.328C278.984 261.003 279.258 260.749 279.606 260.566C279.954 260.381 280.353 260.288 280.802 260.288C281.213 260.288 281.582 260.374 281.911 260.547C282.24 260.716 282.498 260.949 282.687 261.245C282.879 261.541 282.975 261.88 282.975 262.261V262.271C282.975 262.537 282.928 262.795 282.834 263.042C282.742 263.289 282.58 263.564 282.345 263.867C282.111 264.167 281.781 264.536 281.354 264.976L279.533 266.855L279.753 266.45V266.855L279.538 266.709H283.092V267.5H278.532ZM287.025 267.666C286.505 267.666 286.059 267.516 285.688 267.217C285.32 266.917 285.036 266.493 284.838 265.942C284.639 265.389 284.54 264.735 284.54 263.979V263.97C284.54 263.215 284.639 262.562 284.838 262.012C285.036 261.462 285.32 261.037 285.688 260.737C286.059 260.438 286.505 260.288 287.025 260.288C287.546 260.288 287.992 260.438 288.363 260.737C288.734 261.037 289.019 261.462 289.218 262.012C289.42 262.562 289.521 263.215 289.521 263.97V263.979C289.521 264.735 289.42 265.389 289.218 265.942C289.019 266.493 288.734 266.917 288.363 267.217C287.992 267.516 287.546 267.666 287.025 267.666ZM287.025 266.899C287.364 266.899 287.652 266.781 287.89 266.543C288.131 266.305 288.314 265.968 288.441 265.532C288.572 265.096 288.637 264.578 288.637 263.979V263.97C288.637 263.371 288.572 262.855 288.441 262.422C288.314 261.986 288.131 261.65 287.89 261.416C287.652 261.178 287.364 261.06 287.025 261.06C286.69 261.06 286.402 261.178 286.161 261.416C285.924 261.65 285.741 261.986 285.614 262.422C285.487 262.855 285.424 263.371 285.424 263.97V263.979C285.424 264.578 285.487 265.096 285.614 265.532C285.741 265.968 285.924 266.305 286.161 266.543C286.402 266.781 286.69 266.899 287.025 266.899ZM291.53 269.258H290.817C290.993 269.033 291.155 268.75 291.305 268.408C291.458 268.07 291.59 267.695 291.701 267.285C291.811 266.872 291.898 266.445 291.959 266.006C292.021 265.563 292.052 265.129 292.052 264.702C292.052 264.279 292.021 263.848 291.959 263.408C291.898 262.965 291.811 262.539 291.701 262.129C291.59 261.715 291.458 261.338 291.305 260.996C291.155 260.654 290.993 260.371 290.817 260.146H291.53C291.849 260.566 292.111 261.014 292.316 261.489C292.521 261.961 292.672 262.464 292.77 262.998C292.868 263.529 292.916 264.097 292.916 264.702C292.916 265.308 292.866 265.877 292.765 266.411C292.667 266.945 292.516 267.448 292.311 267.92C292.109 268.392 291.849 268.838 291.53 269.258Z" fill="#858E9B"/>
<path d="M110.949 124V113.431H112.436L118.266 121.686L117.146 121.107H117.973V113.431H119.577V124H118.09L112.253 115.753L113.381 116.332H112.546V124H110.949ZM126.733 124.256C125.708 124.256 124.826 124.032 124.089 123.583C123.352 123.128 122.785 122.486 122.39 121.656C121.994 120.826 121.796 119.847 121.796 118.719V118.705C121.796 117.567 121.997 116.585 122.397 115.76C122.797 114.935 123.366 114.298 124.104 113.849C124.846 113.399 125.722 113.175 126.733 113.175C127.749 113.175 128.625 113.399 129.362 113.849C130.1 114.298 130.666 114.938 131.062 115.768C131.462 116.593 131.662 117.572 131.662 118.705V118.719C131.662 119.847 131.464 120.826 131.069 121.656C130.673 122.481 130.104 123.121 129.362 123.575C128.625 124.029 127.749 124.256 126.733 124.256ZM126.733 122.799C127.397 122.799 127.973 122.63 128.461 122.293C128.95 121.957 129.326 121.483 129.589 120.873C129.853 120.257 129.985 119.54 129.985 118.719V118.705C129.985 117.875 129.853 117.154 129.589 116.544C129.326 115.934 128.95 115.462 128.461 115.13C127.973 114.798 127.397 114.632 126.733 114.632C126.069 114.632 125.493 114.798 125.004 115.13C124.521 115.462 124.145 115.934 123.876 116.544C123.608 117.154 123.474 117.875 123.474 118.705V118.719C123.474 119.54 123.603 120.257 123.862 120.873C124.125 121.483 124.499 121.957 124.982 122.293C125.471 122.63 126.054 122.799 126.733 122.799ZM137.976 124V113.431H141.792C142.841 113.431 143.737 113.639 144.479 114.054C145.222 114.469 145.788 115.067 146.179 115.848C146.574 116.629 146.772 117.574 146.772 118.683V118.697C146.772 119.815 146.574 120.77 146.179 121.561C145.788 122.352 145.222 122.958 144.479 123.377C143.742 123.792 142.846 124 141.792 124H137.976ZM139.616 122.579H141.608C142.346 122.579 142.973 122.428 143.491 122.125C144.013 121.822 144.409 121.383 144.677 120.807C144.951 120.23 145.087 119.535 145.087 118.719V118.705C145.087 117.894 144.948 117.201 144.67 116.625C144.396 116.048 144.001 115.609 143.483 115.306C142.966 115.003 142.341 114.852 141.608 114.852H139.616V122.579ZM148.991 124V113.431H155.7V114.852H150.632V117.936H155.429V119.298H150.632V122.579H155.7V124H148.991ZM161.018 124L157.26 113.431H159.047L161.867 122.015H161.992L164.812 113.431H166.606L162.841 124H161.018ZM168.444 124V113.431H170.085V124H168.444ZM177.072 124.256C176.096 124.256 175.249 124.032 174.531 123.583C173.818 123.133 173.269 122.496 172.883 121.671C172.497 120.846 172.304 119.864 172.304 118.727V118.712C172.304 117.569 172.497 116.585 172.883 115.76C173.269 114.935 173.818 114.298 174.531 113.849C175.244 113.399 176.091 113.175 177.072 113.175C177.849 113.175 178.549 113.329 179.174 113.636C179.804 113.939 180.319 114.359 180.72 114.896C181.125 115.433 181.372 116.051 181.459 116.749V116.793H179.826L179.819 116.764C179.721 116.329 179.543 115.953 179.284 115.636C179.025 115.318 178.708 115.072 178.332 114.896C177.956 114.72 177.536 114.632 177.072 114.632C176.442 114.632 175.896 114.798 175.432 115.13C174.973 115.462 174.616 115.934 174.362 116.544C174.113 117.149 173.989 117.872 173.989 118.712V118.727C173.989 119.557 174.113 120.277 174.362 120.887C174.616 121.498 174.973 121.969 175.432 122.301C175.896 122.633 176.445 122.799 177.08 122.799C177.543 122.799 177.963 122.721 178.339 122.564C178.72 122.408 179.038 122.186 179.292 121.898C179.545 121.605 179.719 121.261 179.812 120.865L179.826 120.836H181.467L181.459 120.873C181.357 121.551 181.108 122.145 180.712 122.652C180.317 123.16 179.809 123.556 179.189 123.839C178.569 124.117 177.863 124.256 177.072 124.256ZM183.62 124V113.431H190.329V114.852H185.261V117.936H190.058V119.298H185.261V122.579H190.329V124H183.62ZM108.906 142.256C107.929 142.256 107.082 142.032 106.364 141.583C105.651 141.133 105.102 140.496 104.716 139.671C104.331 138.846 104.138 137.864 104.138 136.727V136.712C104.138 135.569 104.331 134.585 104.716 133.76C105.102 132.935 105.651 132.298 106.364 131.849C107.077 131.399 107.924 131.175 108.906 131.175C109.682 131.175 110.383 131.329 111.008 131.636C111.638 131.939 112.153 132.359 112.553 132.896C112.958 133.433 113.205 134.051 113.293 134.749V134.793H111.66L111.652 134.764C111.555 134.329 111.376 133.953 111.118 133.636C110.859 133.318 110.542 133.072 110.166 132.896C109.79 132.72 109.37 132.632 108.906 132.632C108.276 132.632 107.729 132.798 107.265 133.13C106.806 133.462 106.45 133.934 106.196 134.544C105.947 135.149 105.822 135.872 105.822 136.712V136.727C105.822 137.557 105.947 138.277 106.196 138.887C106.45 139.498 106.806 139.969 107.265 140.301C107.729 140.633 108.278 140.799 108.913 140.799C109.377 140.799 109.797 140.721 110.173 140.564C110.554 140.408 110.871 140.186 111.125 139.898C111.379 139.605 111.552 139.261 111.645 138.865L111.66 138.836H113.3L113.293 138.873C113.19 139.551 112.941 140.145 112.546 140.652C112.15 141.16 111.643 141.556 111.022 141.839C110.402 142.117 109.697 142.256 108.906 142.256ZM119.958 142.256C118.933 142.256 118.051 142.032 117.314 141.583C116.577 141.128 116.01 140.486 115.615 139.656C115.219 138.826 115.021 137.847 115.021 136.719V136.705C115.021 135.567 115.222 134.585 115.622 133.76C116.022 132.935 116.591 132.298 117.329 131.849C118.071 131.399 118.947 131.175 119.958 131.175C120.974 131.175 121.85 131.399 122.587 131.849C123.325 132.298 123.891 132.938 124.287 133.768C124.687 134.593 124.887 135.572 124.887 136.705V136.719C124.887 137.847 124.689 138.826 124.294 139.656C123.898 140.481 123.33 141.121 122.587 141.575C121.85 142.029 120.974 142.256 119.958 142.256ZM119.958 140.799C120.622 140.799 121.198 140.63 121.687 140.293C122.175 139.957 122.551 139.483 122.814 138.873C123.078 138.257 123.21 137.54 123.21 136.719V136.705C123.21 135.875 123.078 135.154 122.814 134.544C122.551 133.934 122.175 133.462 121.687 133.13C121.198 132.798 120.622 132.632 119.958 132.632C119.294 132.632 118.718 132.798 118.229 133.13C117.746 133.462 117.37 133.934 117.102 134.544C116.833 135.154 116.699 135.875 116.699 136.705V136.719C116.699 137.54 116.828 138.257 117.087 138.873C117.351 139.483 117.724 139.957 118.208 140.293C118.696 140.63 119.279 140.799 119.958 140.799ZM127.114 142V131.431H128.601L134.431 139.686L133.31 139.107H134.138V131.431H135.742V142H134.255L128.417 133.753L129.545 134.332H128.71V142H127.114ZM138.393 142V131.431H139.88L145.71 139.686L144.589 139.107H145.417V131.431H147.021V142H145.534L139.697 133.753L140.825 134.332H139.99V142H138.393ZM149.672 142V131.431H156.381V132.852H151.313V135.936H156.11V137.298H151.313V140.579H156.381V142H149.672ZM163.09 142.256C162.114 142.256 161.267 142.032 160.549 141.583C159.836 141.133 159.287 140.496 158.901 139.671C158.515 138.846 158.322 137.864 158.322 136.727V136.712C158.322 135.569 158.515 134.585 158.901 133.76C159.287 132.935 159.836 132.298 160.549 131.849C161.262 131.399 162.109 131.175 163.09 131.175C163.867 131.175 164.567 131.329 165.192 131.636C165.822 131.939 166.337 132.359 166.738 132.896C167.143 133.433 167.39 134.051 167.478 134.749V134.793H165.844L165.837 134.764C165.739 134.329 165.561 133.953 165.302 133.636C165.043 133.318 164.726 133.072 164.35 132.896C163.974 132.72 163.554 132.632 163.09 132.632C162.46 132.632 161.914 132.798 161.45 133.13C160.991 133.462 160.634 133.934 160.38 134.544C160.131 135.149 160.007 135.872 160.007 136.712V136.727C160.007 137.557 160.131 138.277 160.38 138.887C160.634 139.498 160.991 139.969 161.45 140.301C161.914 140.633 162.463 140.799 163.098 140.799C163.562 140.799 163.981 140.721 164.357 140.564C164.738 140.408 165.056 140.186 165.31 139.898C165.563 139.605 165.737 139.261 165.83 138.865L165.844 138.836H167.485L167.478 138.873C167.375 139.551 167.126 140.145 166.73 140.652C166.335 141.16 165.827 141.556 165.207 141.839C164.587 142.117 163.881 142.256 163.09 142.256ZM172.011 142V132.852H168.686V131.431H176.977V132.852H173.652V142H172.011ZM178.984 142V131.431H185.693V132.852H180.625V135.936H185.422V137.298H180.625V140.579H185.693V142H178.984ZM188.066 142V131.431H191.882C192.932 131.431 193.828 131.639 194.57 132.054C195.312 132.469 195.878 133.067 196.269 133.848C196.665 134.629 196.862 135.574 196.862 136.683V136.697C196.862 137.815 196.665 138.77 196.269 139.561C195.878 140.352 195.312 140.958 194.57 141.377C193.833 141.792 192.937 142 191.882 142H188.066ZM189.707 140.579H191.699C192.436 140.579 193.063 140.428 193.581 140.125C194.104 139.822 194.499 139.383 194.768 138.807C195.041 138.23 195.178 137.535 195.178 136.719V136.705C195.178 135.894 195.039 135.201 194.76 134.625C194.487 134.048 194.091 133.609 193.574 133.306C193.056 133.003 192.431 132.852 191.699 132.852H189.707V140.579Z" fill="#54585D"/>
<path d="M117.229 159V152.745H114.959V151.954H120.379V152.745H118.108V159H117.229ZM122.149 159.093C121.817 159.093 121.517 159.029 121.25 158.902C120.987 158.775 120.777 158.595 120.621 158.36C120.468 158.126 120.391 157.849 120.391 157.53V157.521C120.391 157.208 120.466 156.941 120.616 156.72C120.765 156.495 120.983 156.319 121.27 156.192C121.556 156.065 121.903 155.991 122.31 155.968L124.244 155.851V156.529L122.412 156.646C122.012 156.669 121.719 156.752 121.534 156.896C121.351 157.039 121.26 157.241 121.26 157.501V157.511C121.26 157.778 121.361 157.986 121.563 158.136C121.765 158.282 122.019 158.355 122.325 158.355C122.614 158.355 122.871 158.299 123.096 158.185C123.321 158.067 123.496 157.91 123.623 157.711C123.754 157.512 123.819 157.288 123.819 157.037V155.396C123.819 155.071 123.719 154.824 123.521 154.654C123.326 154.482 123.031 154.396 122.637 154.396C122.321 154.396 122.063 154.452 121.861 154.566C121.659 154.677 121.524 154.835 121.455 155.04L121.451 155.055H120.601L120.606 155.025C120.651 154.749 120.765 154.508 120.948 154.303C121.133 154.094 121.372 153.933 121.665 153.819C121.958 153.702 122.292 153.644 122.666 153.644C123.096 153.644 123.459 153.714 123.755 153.854C124.055 153.993 124.281 154.195 124.434 154.459C124.59 154.719 124.668 155.032 124.668 155.396V159H123.819V158.224H123.741C123.63 158.409 123.495 158.567 123.335 158.697C123.179 158.827 123.002 158.927 122.803 158.995C122.605 159.06 122.386 159.093 122.149 159.093ZM126.321 159V153.736H127.171V154.518H127.249C127.35 154.241 127.521 154.026 127.762 153.873C128.002 153.72 128.3 153.644 128.655 153.644C128.736 153.644 128.816 153.648 128.894 153.658C128.976 153.665 129.038 153.671 129.08 153.678V154.503C128.992 154.487 128.906 154.475 128.821 154.469C128.74 154.459 128.652 154.454 128.557 154.454C128.287 154.454 128.048 154.508 127.84 154.615C127.631 154.723 127.467 154.872 127.346 155.064C127.229 155.257 127.171 155.481 127.171 155.738V159H126.321ZM132.251 160.855C131.828 160.855 131.459 160.795 131.143 160.675C130.827 160.558 130.575 160.39 130.386 160.172C130.2 159.957 130.085 159.706 130.039 159.42L130.049 159.415H130.928L130.933 159.42C130.978 159.618 131.115 159.781 131.343 159.908C131.571 160.038 131.874 160.104 132.251 160.104C132.723 160.104 133.091 159.996 133.355 159.781C133.622 159.57 133.755 159.27 133.755 158.883V157.818H133.677C133.566 158.01 133.428 158.175 133.262 158.312C133.096 158.448 132.909 158.552 132.7 158.624C132.492 158.692 132.267 158.727 132.027 158.727C131.574 158.727 131.182 158.619 130.85 158.404C130.521 158.186 130.267 157.887 130.088 157.506C129.909 157.125 129.82 156.689 129.82 156.197V156.188C129.82 155.696 129.909 155.26 130.088 154.879C130.27 154.495 130.528 154.194 130.86 153.976C131.192 153.754 131.587 153.644 132.046 153.644C132.293 153.644 132.521 153.683 132.73 153.761C132.938 153.839 133.122 153.95 133.281 154.093C133.444 154.236 133.579 154.407 133.687 154.605H133.745V153.736H134.595V158.927C134.595 159.317 134.499 159.658 134.307 159.947C134.118 160.237 133.848 160.46 133.496 160.616C133.145 160.776 132.73 160.855 132.251 160.855ZM132.212 157.975C132.538 157.975 132.816 157.9 133.047 157.75C133.281 157.597 133.46 157.387 133.584 157.12C133.711 156.853 133.775 156.546 133.775 156.197V156.188C133.775 155.839 133.711 155.53 133.584 155.26C133.46 154.99 133.281 154.778 133.047 154.625C132.816 154.472 132.538 154.396 132.212 154.396C131.887 154.396 131.61 154.472 131.382 154.625C131.157 154.778 130.985 154.99 130.864 155.26C130.747 155.53 130.689 155.839 130.689 156.188V156.197C130.689 156.546 130.747 156.853 130.864 157.12C130.985 157.387 131.157 157.597 131.382 157.75C131.61 157.9 131.887 157.975 132.212 157.975ZM138.425 159.093C137.924 159.093 137.493 158.982 137.131 158.761C136.773 158.539 136.497 158.227 136.301 157.823C136.109 157.416 136.013 156.938 136.013 156.388V156.383C136.013 155.839 136.109 155.362 136.301 154.952C136.497 154.542 136.772 154.221 137.127 153.99C137.481 153.759 137.896 153.644 138.372 153.644C138.85 153.644 139.26 153.754 139.602 153.976C139.947 154.197 140.211 154.506 140.393 154.903C140.579 155.297 140.671 155.756 140.671 156.28V156.612H136.453V155.934H140.237L139.817 156.554V156.217C139.817 155.803 139.755 155.463 139.631 155.196C139.508 154.929 139.337 154.731 139.119 154.601C138.901 154.467 138.65 154.4 138.367 154.4C138.084 154.4 137.83 154.47 137.605 154.61C137.384 154.747 137.208 154.951 137.078 155.221C136.948 155.491 136.882 155.823 136.882 156.217V156.554C136.882 156.928 136.946 157.249 137.073 157.516C137.2 157.779 137.38 157.983 137.615 158.126C137.849 158.266 138.126 158.336 138.445 158.336C138.683 158.336 138.889 158.303 139.065 158.238C139.241 158.173 139.386 158.09 139.5 157.989C139.614 157.888 139.693 157.786 139.739 157.682L139.758 157.638H140.608L140.598 157.677C140.553 157.856 140.471 158.03 140.354 158.199C140.24 158.365 140.092 158.517 139.91 158.653C139.727 158.787 139.511 158.894 139.26 158.976C139.013 159.054 138.735 159.093 138.425 159.093ZM143.96 159.039C143.42 159.039 143.027 158.93 142.783 158.712C142.542 158.494 142.422 158.134 142.422 157.633V154.439H141.592V153.736H142.422V152.374H143.301V153.736H144.453V154.439H143.301V157.418C143.301 157.727 143.359 157.95 143.477 158.087C143.594 158.22 143.789 158.287 144.062 158.287C144.137 158.287 144.201 158.285 144.253 158.282C144.308 158.279 144.375 158.274 144.453 158.268V158.99C144.372 159.003 144.29 159.015 144.209 159.024C144.128 159.034 144.045 159.039 143.96 159.039ZM150.879 159L148.281 151.954H149.204L151.274 157.862H151.352L153.423 151.954H154.346L151.748 159H150.879ZM156.53 159.093C156.198 159.093 155.899 159.029 155.632 158.902C155.368 158.775 155.158 158.595 155.002 158.36C154.849 158.126 154.773 157.849 154.773 157.53V157.521C154.773 157.208 154.848 156.941 154.997 156.72C155.147 156.495 155.365 156.319 155.652 156.192C155.938 156.065 156.285 155.991 156.692 155.968L158.625 155.851V156.529L156.794 156.646C156.394 156.669 156.101 156.752 155.915 156.896C155.733 157.039 155.642 157.241 155.642 157.501V157.511C155.642 157.778 155.743 157.986 155.945 158.136C156.146 158.282 156.4 158.355 156.706 158.355C156.996 158.355 157.253 158.299 157.478 158.185C157.702 158.067 157.878 157.91 158.005 157.711C158.135 157.512 158.2 157.288 158.2 157.037V155.396C158.2 155.071 158.101 154.824 157.903 154.654C157.707 154.482 157.413 154.396 157.019 154.396C156.703 154.396 156.444 154.452 156.242 154.566C156.041 154.677 155.905 154.835 155.837 155.04L155.832 155.055H154.983L154.987 155.025C155.033 154.749 155.147 154.508 155.329 154.303C155.515 154.094 155.754 153.933 156.047 153.819C156.34 153.702 156.674 153.644 157.048 153.644C157.478 153.644 157.841 153.714 158.137 153.854C158.436 153.993 158.663 154.195 158.816 154.459C158.972 154.719 159.05 155.032 159.05 155.396V159H158.2V158.224H158.122C158.012 158.409 157.876 158.567 157.717 158.697C157.561 158.827 157.383 158.927 157.185 158.995C156.986 159.06 156.768 159.093 156.53 159.093ZM162.856 159.093C162.365 159.093 161.938 158.98 161.577 158.756C161.215 158.531 160.935 158.214 160.737 157.804C160.538 157.394 160.439 156.91 160.439 156.354V156.344C160.439 155.797 160.537 155.322 160.732 154.918C160.931 154.514 161.211 154.202 161.572 153.98C161.933 153.756 162.36 153.644 162.851 153.644C163.278 153.644 163.645 153.718 163.955 153.868C164.264 154.018 164.511 154.22 164.697 154.474C164.882 154.724 165.001 155.006 165.053 155.318L165.058 155.348H164.213L164.209 155.333C164.143 155.073 163.995 154.851 163.764 154.669C163.533 154.487 163.229 154.396 162.851 154.396C162.535 154.396 162.262 154.475 162.031 154.635C161.8 154.794 161.621 155.021 161.494 155.313C161.37 155.603 161.308 155.947 161.308 156.344V156.354C161.308 156.757 161.372 157.109 161.499 157.408C161.626 157.704 161.805 157.934 162.036 158.097C162.267 158.259 162.539 158.341 162.851 158.341C163.206 158.341 163.496 158.264 163.72 158.111C163.945 157.958 164.106 157.735 164.204 157.442L164.213 157.413L165.053 157.408L165.044 157.462C164.972 157.778 164.845 158.059 164.663 158.307C164.48 158.551 164.24 158.743 163.94 158.883C163.641 159.023 163.279 159.093 162.856 159.093ZM168.161 159.093C167.764 159.093 167.43 159.018 167.16 158.868C166.89 158.715 166.687 158.494 166.55 158.204C166.416 157.911 166.35 157.558 166.35 157.145V153.736H167.199V156.939C167.199 157.411 167.29 157.763 167.473 157.994C167.658 158.225 167.961 158.341 168.381 158.341C168.612 158.341 168.815 158.307 168.991 158.238C169.17 158.17 169.32 158.072 169.44 157.945C169.561 157.815 169.65 157.659 169.709 157.477C169.771 157.291 169.802 157.083 169.802 156.852V153.736H170.651V159H169.802V158.214H169.724C169.639 158.399 169.523 158.559 169.377 158.692C169.23 158.823 169.055 158.922 168.85 158.99C168.648 159.059 168.418 159.093 168.161 159.093ZM174.101 159.093C173.704 159.093 173.37 159.018 173.1 158.868C172.83 158.715 172.626 158.494 172.49 158.204C172.356 157.911 172.289 157.558 172.289 157.145V153.736H173.139V156.939C173.139 157.411 173.23 157.763 173.412 157.994C173.598 158.225 173.901 158.341 174.321 158.341C174.552 158.341 174.755 158.307 174.931 158.238C175.11 158.17 175.26 158.072 175.38 157.945C175.501 157.815 175.59 157.659 175.649 157.477C175.711 157.291 175.742 157.083 175.742 156.852V153.736H176.591V159H175.742V158.214H175.663C175.579 158.399 175.463 158.559 175.317 158.692C175.17 158.823 174.995 158.922 174.789 158.99C174.588 159.059 174.358 159.093 174.101 159.093ZM178.278 159V153.736H179.128V154.537H179.206C179.323 154.254 179.502 154.034 179.743 153.878C179.987 153.722 180.282 153.644 180.627 153.644C180.864 153.644 181.078 153.683 181.266 153.761C181.455 153.839 181.618 153.948 181.755 154.088C181.891 154.225 182 154.384 182.082 154.566H182.16C182.254 154.381 182.381 154.22 182.541 154.083C182.7 153.943 182.884 153.836 183.093 153.761C183.304 153.683 183.53 153.644 183.771 153.644C184.129 153.644 184.432 153.71 184.679 153.844C184.93 153.977 185.121 154.173 185.251 154.43C185.381 154.684 185.446 154.994 185.446 155.362V159H184.596V155.558C184.596 155.297 184.556 155.082 184.474 154.913C184.396 154.741 184.276 154.612 184.113 154.527C183.95 154.439 183.745 154.396 183.498 154.396C183.254 154.396 183.04 154.451 182.858 154.562C182.676 154.672 182.534 154.82 182.433 155.006C182.332 155.188 182.282 155.392 182.282 155.616V159H181.432V155.426C181.432 155.217 181.387 155.037 181.296 154.884C181.208 154.728 181.081 154.607 180.915 154.522C180.752 154.438 180.56 154.396 180.339 154.396C180.111 154.396 179.904 154.456 179.719 154.576C179.536 154.697 179.391 154.859 179.284 155.064C179.18 155.266 179.128 155.491 179.128 155.738V159H178.278Z" fill="#858E9B"/>
<path d="M110.949 193V182.431H112.436L118.266 190.686L117.146 190.107H117.973V182.431H119.577V193H118.09L112.253 184.753L113.381 185.332H112.546V193H110.949ZM126.733 193.256C125.708 193.256 124.826 193.032 124.089 192.583C123.352 192.128 122.785 191.486 122.39 190.656C121.994 189.826 121.796 188.847 121.796 187.719V187.705C121.796 186.567 121.997 185.585 122.397 184.76C122.797 183.935 123.366 183.298 124.104 182.849C124.846 182.399 125.722 182.175 126.733 182.175C127.749 182.175 128.625 182.399 129.362 182.849C130.1 183.298 130.666 183.938 131.062 184.768C131.462 185.593 131.662 186.572 131.662 187.705V187.719C131.662 188.847 131.464 189.826 131.069 190.656C130.673 191.481 130.104 192.121 129.362 192.575C128.625 193.029 127.749 193.256 126.733 193.256ZM126.733 191.799C127.397 191.799 127.973 191.63 128.461 191.293C128.95 190.957 129.326 190.483 129.589 189.873C129.853 189.257 129.985 188.54 129.985 187.719V187.705C129.985 186.875 129.853 186.154 129.589 185.544C129.326 184.934 128.95 184.462 128.461 184.13C127.973 183.798 127.397 183.632 126.733 183.632C126.069 183.632 125.493 183.798 125.004 184.13C124.521 184.462 124.145 184.934 123.876 185.544C123.608 186.154 123.474 186.875 123.474 187.705V187.719C123.474 188.54 123.603 189.257 123.862 189.873C124.125 190.483 124.499 190.957 124.982 191.293C125.471 191.63 126.054 191.799 126.733 191.799ZM137.976 193V182.431H141.792C142.841 182.431 143.737 182.639 144.479 183.054C145.222 183.469 145.788 184.067 146.179 184.848C146.574 185.629 146.772 186.574 146.772 187.683V187.697C146.772 188.815 146.574 189.77 146.179 190.561C145.788 191.352 145.222 191.958 144.479 192.377C143.742 192.792 142.846 193 141.792 193H137.976ZM139.616 191.579H141.608C142.346 191.579 142.973 191.428 143.491 191.125C144.013 190.822 144.409 190.383 144.677 189.807C144.951 189.23 145.087 188.535 145.087 187.719V187.705C145.087 186.894 144.948 186.201 144.67 185.625C144.396 185.048 144.001 184.609 143.483 184.306C142.966 184.003 142.341 183.852 141.608 183.852H139.616V191.579ZM148.991 193V182.431H155.7V183.852H150.632V186.936H155.429V188.298H150.632V191.579H155.7V193H148.991ZM161.018 193L157.26 182.431H159.047L161.867 191.015H161.992L164.812 182.431H166.606L162.841 193H161.018ZM168.444 193V182.431H170.085V193H168.444ZM177.072 193.256C176.096 193.256 175.249 193.032 174.531 192.583C173.818 192.133 173.269 191.496 172.883 190.671C172.497 189.846 172.304 188.864 172.304 187.727V187.712C172.304 186.569 172.497 185.585 172.883 184.76C173.269 183.935 173.818 183.298 174.531 182.849C175.244 182.399 176.091 182.175 177.072 182.175C177.849 182.175 178.549 182.329 179.174 182.636C179.804 182.939 180.319 183.359 180.72 183.896C181.125 184.433 181.372 185.051 181.459 185.749V185.793H179.826L179.819 185.764C179.721 185.329 179.543 184.953 179.284 184.636C179.025 184.318 178.708 184.072 178.332 183.896C177.956 183.72 177.536 183.632 177.072 183.632C176.442 183.632 175.896 183.798 175.432 184.13C174.973 184.462 174.616 184.934 174.362 185.544C174.113 186.149 173.989 186.872 173.989 187.712V187.727C173.989 188.557 174.113 189.277 174.362 189.887C174.616 190.498 174.973 190.969 175.432 191.301C175.896 191.633 176.445 191.799 177.08 191.799C177.543 191.799 177.963 191.721 178.339 191.564C178.72 191.408 179.038 191.186 179.292 190.898C179.545 190.605 179.719 190.261 179.812 189.865L179.826 189.836H181.467L181.459 189.873C181.357 190.551 181.108 191.145 180.712 191.652C180.317 192.16 179.809 192.556 179.189 192.839C178.569 193.117 177.863 193.256 177.072 193.256ZM183.62 193V182.431H190.329V183.852H185.261V186.936H190.058V188.298H185.261V191.579H190.329V193H183.62ZM108.906 211.256C107.929 211.256 107.082 211.032 106.364 210.583C105.651 210.133 105.102 209.496 104.716 208.671C104.331 207.846 104.138 206.864 104.138 205.727V205.712C104.138 204.569 104.331 203.585 104.716 202.76C105.102 201.935 105.651 201.298 106.364 200.849C107.077 200.399 107.924 200.175 108.906 200.175C109.682 200.175 110.383 200.329 111.008 200.636C111.638 200.939 112.153 201.359 112.553 201.896C112.958 202.433 113.205 203.051 113.293 203.749V203.793H111.66L111.652 203.764C111.555 203.329 111.376 202.953 111.118 202.636C110.859 202.318 110.542 202.072 110.166 201.896C109.79 201.72 109.37 201.632 108.906 201.632C108.276 201.632 107.729 201.798 107.265 202.13C106.806 202.462 106.45 202.934 106.196 203.544C105.947 204.149 105.822 204.872 105.822 205.712V205.727C105.822 206.557 105.947 207.277 106.196 207.887C106.45 208.498 106.806 208.969 107.265 209.301C107.729 209.633 108.278 209.799 108.913 209.799C109.377 209.799 109.797 209.721 110.173 209.564C110.554 209.408 110.871 209.186 111.125 208.898C111.379 208.605 111.552 208.261 111.645 207.865L111.66 207.836H113.3L113.293 207.873C113.19 208.551 112.941 209.145 112.546 209.652C112.15 210.16 111.643 210.556 111.022 210.839C110.402 211.117 109.697 211.256 108.906 211.256ZM119.958 211.256C118.933 211.256 118.051 211.032 117.314 210.583C116.577 210.128 116.01 209.486 115.615 208.656C115.219 207.826 115.021 206.847 115.021 205.719V205.705C115.021 204.567 115.222 203.585 115.622 202.76C116.022 201.935 116.591 201.298 117.329 200.849C118.071 200.399 118.947 200.175 119.958 200.175C120.974 200.175 121.85 200.399 122.587 200.849C123.325 201.298 123.891 201.938 124.287 202.768C124.687 203.593 124.887 204.572 124.887 205.705V205.719C124.887 206.847 124.689 207.826 124.294 208.656C123.898 209.481 123.33 210.121 122.587 210.575C121.85 211.029 120.974 211.256 119.958 211.256ZM119.958 209.799C120.622 209.799 121.198 209.63 121.687 209.293C122.175 208.957 122.551 208.483 122.814 207.873C123.078 207.257 123.21 206.54 123.21 205.719V205.705C123.21 204.875 123.078 204.154 122.814 203.544C122.551 202.934 122.175 202.462 121.687 202.13C121.198 201.798 120.622 201.632 119.958 201.632C119.294 201.632 118.718 201.798 118.229 202.13C117.746 202.462 117.37 202.934 117.102 203.544C116.833 204.154 116.699 204.875 116.699 205.705V205.719C116.699 206.54 116.828 207.257 117.087 207.873C117.351 208.483 117.724 208.957 118.208 209.293C118.696 209.63 119.279 209.799 119.958 209.799ZM127.114 211V200.431H128.601L134.431 208.686L133.31 208.107H134.138V200.431H135.742V211H134.255L128.417 202.753L129.545 203.332H128.71V211H127.114ZM138.393 211V200.431H139.88L145.71 208.686L144.589 208.107H145.417V200.431H147.021V211H145.534L139.697 202.753L140.825 203.332H139.99V211H138.393ZM149.672 211V200.431H156.381V201.852H151.313V204.936H156.11V206.298H151.313V209.579H156.381V211H149.672ZM163.09 211.256C162.114 211.256 161.267 211.032 160.549 210.583C159.836 210.133 159.287 209.496 158.901 208.671C158.515 207.846 158.322 206.864 158.322 205.727V205.712C158.322 204.569 158.515 203.585 158.901 202.76C159.287 201.935 159.836 201.298 160.549 200.849C161.262 200.399 162.109 200.175 163.09 200.175C163.867 200.175 164.567 200.329 165.192 200.636C165.822 200.939 166.337 201.359 166.738 201.896C167.143 202.433 167.39 203.051 167.478 203.749V203.793H165.844L165.837 203.764C165.739 203.329 165.561 202.953 165.302 202.636C165.043 202.318 164.726 202.072 164.35 201.896C163.974 201.72 163.554 201.632 163.09 201.632C162.46 201.632 161.914 201.798 161.45 202.13C160.991 202.462 160.634 202.934 160.38 203.544C160.131 204.149 160.007 204.872 160.007 205.712V205.727C160.007 206.557 160.131 207.277 160.38 207.887C160.634 208.498 160.991 208.969 161.45 209.301C161.914 209.633 162.463 209.799 163.098 209.799C163.562 209.799 163.981 209.721 164.357 209.564C164.738 209.408 165.056 209.186 165.31 208.898C165.563 208.605 165.737 208.261 165.83 207.865L165.844 207.836H167.485L167.478 207.873C167.375 208.551 167.126 209.145 166.73 209.652C166.335 210.16 165.827 210.556 165.207 210.839C164.587 211.117 163.881 211.256 163.09 211.256ZM172.011 211V201.852H168.686V200.431H176.977V201.852H173.652V211H172.011ZM178.984 211V200.431H185.693V201.852H180.625V204.936H185.422V206.298H180.625V209.579H185.693V211H178.984ZM188.066 211V200.431H191.882C192.932 200.431 193.828 200.639 194.57 201.054C195.312 201.469 195.878 202.067 196.269 202.848C196.665 203.629 196.862 204.574 196.862 205.683V205.697C196.862 206.815 196.665 207.77 196.269 208.561C195.878 209.352 195.312 209.958 194.57 210.377C193.833 210.792 192.937 211 191.882 211H188.066ZM189.707 209.579H191.699C192.436 209.579 193.063 209.428 193.581 209.125C194.104 208.822 194.499 208.383 194.768 207.807C195.041 207.23 195.178 206.535 195.178 205.719V205.705C195.178 204.894 195.039 204.201 194.76 203.625C194.487 203.048 194.091 202.609 193.574 202.306C193.056 202.003 192.431 201.852 191.699 201.852H189.707V209.579Z" fill="#54585D"/>
<path d="M114.837 228L117.435 220.954H118.108V222.092H117.83L115.76 228H114.837ZM116.014 225.983L116.287 225.236H119.471L119.744 225.983H116.014ZM119.979 228L117.908 222.092V220.954H118.304L120.901 228H119.979ZM123.99 228.093C123.498 228.093 123.072 227.98 122.71 227.756C122.349 227.531 122.069 227.214 121.871 226.804C121.672 226.394 121.573 225.91 121.573 225.354V225.344C121.573 224.797 121.67 224.322 121.866 223.918C122.064 223.514 122.344 223.202 122.705 222.98C123.067 222.756 123.493 222.644 123.985 222.644C124.411 222.644 124.779 222.718 125.088 222.868C125.398 223.018 125.645 223.22 125.83 223.474C126.016 223.724 126.135 224.006 126.187 224.318L126.192 224.348H125.347L125.342 224.333C125.277 224.073 125.129 223.851 124.898 223.669C124.667 223.487 124.362 223.396 123.985 223.396C123.669 223.396 123.396 223.475 123.164 223.635C122.933 223.794 122.754 224.021 122.627 224.313C122.504 224.603 122.442 224.947 122.442 225.344V225.354C122.442 225.757 122.505 226.109 122.632 226.408C122.759 226.704 122.938 226.934 123.169 227.097C123.4 227.259 123.672 227.341 123.985 227.341C124.34 227.341 124.629 227.264 124.854 227.111C125.079 226.958 125.24 226.735 125.337 226.442L125.347 226.413L126.187 226.408L126.177 226.462C126.106 226.778 125.979 227.059 125.796 227.307C125.614 227.551 125.373 227.743 125.074 227.883C124.774 228.023 124.413 228.093 123.99 228.093ZM129.5 228.039C128.959 228.039 128.567 227.93 128.323 227.712C128.082 227.494 127.962 227.134 127.962 226.633V223.439H127.132V222.736H127.962V221.374H128.841V222.736H129.993V223.439H128.841V226.418C128.841 226.727 128.899 226.95 129.016 227.087C129.134 227.22 129.329 227.287 129.602 227.287C129.677 227.287 129.741 227.285 129.793 227.282C129.848 227.279 129.915 227.274 129.993 227.268V227.99C129.912 228.003 129.83 228.015 129.749 228.024C129.667 228.034 129.584 228.039 129.5 228.039ZM133.125 228.093C132.728 228.093 132.394 228.018 132.124 227.868C131.854 227.715 131.651 227.494 131.514 227.204C131.38 226.911 131.314 226.558 131.314 226.145V222.736H132.163V225.939C132.163 226.411 132.254 226.763 132.437 226.994C132.622 227.225 132.925 227.341 133.345 227.341C133.576 227.341 133.779 227.307 133.955 227.238C134.134 227.17 134.284 227.072 134.404 226.945C134.525 226.815 134.614 226.659 134.673 226.477C134.735 226.291 134.766 226.083 134.766 225.852V222.736H135.615V228H134.766V227.214H134.688C134.603 227.399 134.487 227.559 134.341 227.692C134.195 227.823 134.019 227.922 133.814 227.99C133.612 228.059 133.382 228.093 133.125 228.093ZM138.748 228.093C138.416 228.093 138.116 228.029 137.849 227.902C137.586 227.775 137.376 227.595 137.219 227.36C137.066 227.126 136.99 226.849 136.99 226.53V226.521C136.99 226.208 137.065 225.941 137.214 225.72C137.364 225.495 137.582 225.319 137.869 225.192C138.155 225.065 138.502 224.991 138.909 224.968L140.842 224.851V225.529L139.011 225.646C138.611 225.669 138.318 225.752 138.132 225.896C137.95 226.039 137.859 226.241 137.859 226.501V226.511C137.859 226.778 137.96 226.986 138.162 227.136C138.364 227.282 138.617 227.355 138.923 227.355C139.213 227.355 139.47 227.299 139.695 227.185C139.92 227.067 140.095 226.91 140.222 226.711C140.352 226.512 140.418 226.288 140.418 226.037V224.396C140.418 224.071 140.318 223.824 140.12 223.654C139.924 223.482 139.63 223.396 139.236 223.396C138.92 223.396 138.661 223.452 138.46 223.566C138.258 223.677 138.123 223.835 138.054 224.04L138.049 224.055H137.2L137.205 224.025C137.25 223.749 137.364 223.508 137.546 223.303C137.732 223.094 137.971 222.933 138.264 222.819C138.557 222.702 138.891 222.644 139.265 222.644C139.695 222.644 140.058 222.714 140.354 222.854C140.654 222.993 140.88 223.195 141.033 223.459C141.189 223.719 141.267 224.032 141.267 224.396V228H140.418V227.224H140.339C140.229 227.409 140.094 227.567 139.934 227.697C139.778 227.827 139.601 227.927 139.402 227.995C139.203 228.06 138.985 228.093 138.748 228.093ZM142.969 228V220.646H143.818V228H142.969ZM150.605 228L148.008 220.954H148.93L151.001 226.862H151.079L153.149 220.954H154.072L151.474 228H150.605ZM156.257 228.093C155.925 228.093 155.626 228.029 155.359 227.902C155.095 227.775 154.885 227.595 154.729 227.36C154.576 227.126 154.499 226.849 154.499 226.53V226.521C154.499 226.208 154.574 225.941 154.724 225.72C154.874 225.495 155.092 225.319 155.378 225.192C155.665 225.065 156.011 224.991 156.418 224.968L158.352 224.851V225.529L156.521 225.646C156.12 225.669 155.827 225.752 155.642 225.896C155.46 226.039 155.368 226.241 155.368 226.501V226.511C155.368 226.778 155.469 226.986 155.671 227.136C155.873 227.282 156.127 227.355 156.433 227.355C156.723 227.355 156.98 227.299 157.204 227.185C157.429 227.067 157.605 226.91 157.732 226.711C157.862 226.512 157.927 226.288 157.927 226.037V224.396C157.927 224.071 157.828 223.824 157.629 223.654C157.434 223.482 157.139 223.396 156.745 223.396C156.43 223.396 156.171 223.452 155.969 223.566C155.767 223.677 155.632 223.835 155.564 224.04L155.559 224.055H154.709L154.714 224.025C154.76 223.749 154.874 223.508 155.056 223.303C155.241 223.094 155.481 222.933 155.774 222.819C156.067 222.702 156.4 222.644 156.775 222.644C157.204 222.644 157.567 222.714 157.863 222.854C158.163 222.993 158.389 223.195 158.542 223.459C158.698 223.719 158.777 224.032 158.777 224.396V228H157.927V227.224H157.849C157.738 227.409 157.603 227.567 157.444 227.697C157.287 227.827 157.11 227.927 156.911 227.995C156.713 228.06 156.495 228.093 156.257 228.093ZM162.583 228.093C162.091 228.093 161.665 227.98 161.303 227.756C160.942 227.531 160.662 227.214 160.463 226.804C160.265 226.394 160.166 225.91 160.166 225.354V225.344C160.166 224.797 160.263 224.322 160.459 223.918C160.657 223.514 160.937 223.202 161.298 222.98C161.66 222.756 162.086 222.644 162.578 222.644C163.004 222.644 163.372 222.718 163.681 222.868C163.99 223.018 164.238 223.22 164.423 223.474C164.609 223.724 164.728 224.006 164.78 224.318L164.785 224.348H163.94L163.935 224.333C163.87 224.073 163.722 223.851 163.491 223.669C163.26 223.487 162.955 223.396 162.578 223.396C162.262 223.396 161.989 223.475 161.757 223.635C161.526 223.794 161.347 224.021 161.22 224.313C161.097 224.603 161.035 224.947 161.035 225.344V225.354C161.035 225.757 161.098 226.109 161.225 226.408C161.352 226.704 161.531 226.934 161.762 227.097C161.993 227.259 162.265 227.341 162.578 227.341C162.933 227.341 163.222 227.264 163.447 227.111C163.671 226.958 163.833 226.735 163.93 226.442L163.94 226.413L164.78 226.408L164.77 226.462C164.699 226.778 164.572 227.059 164.389 227.307C164.207 227.551 163.966 227.743 163.667 227.883C163.367 228.023 163.006 228.093 162.583 228.093ZM167.888 228.093C167.491 228.093 167.157 228.018 166.887 227.868C166.617 227.715 166.413 227.494 166.276 227.204C166.143 226.911 166.076 226.558 166.076 226.145V222.736H166.926V225.939C166.926 226.411 167.017 226.763 167.199 226.994C167.385 227.225 167.688 227.341 168.107 227.341C168.339 227.341 168.542 227.307 168.718 227.238C168.897 227.17 169.047 227.072 169.167 226.945C169.287 226.815 169.377 226.659 169.436 226.477C169.497 226.291 169.528 226.083 169.528 225.852V222.736H170.378V228H169.528V227.214H169.45C169.366 227.399 169.25 227.559 169.104 227.692C168.957 227.823 168.781 227.922 168.576 227.99C168.374 228.059 168.145 228.093 167.888 228.093ZM173.828 228.093C173.43 228.093 173.097 228.018 172.827 227.868C172.556 227.715 172.353 227.494 172.216 227.204C172.083 226.911 172.016 226.558 172.016 226.145V222.736H172.866V225.939C172.866 226.411 172.957 226.763 173.139 226.994C173.325 227.225 173.627 227.341 174.047 227.341C174.278 227.341 174.482 227.307 174.658 227.238C174.837 227.17 174.986 227.072 175.107 226.945C175.227 226.815 175.317 226.659 175.375 226.477C175.437 226.291 175.468 226.083 175.468 225.852V222.736H176.318V228H175.468V227.214H175.39C175.305 227.399 175.19 227.559 175.043 227.692C174.897 227.823 174.721 227.922 174.516 227.99C174.314 228.059 174.085 228.093 173.828 228.093ZM178.005 228V222.736H178.854V223.537H178.932C179.05 223.254 179.229 223.034 179.47 222.878C179.714 222.722 180.008 222.644 180.353 222.644C180.591 222.644 180.804 222.683 180.993 222.761C181.182 222.839 181.345 222.948 181.481 223.088C181.618 223.225 181.727 223.384 181.808 223.566H181.887C181.981 223.381 182.108 223.22 182.267 223.083C182.427 222.943 182.611 222.836 182.819 222.761C183.031 222.683 183.257 222.644 183.498 222.644C183.856 222.644 184.159 222.71 184.406 222.844C184.657 222.977 184.847 223.173 184.977 223.43C185.108 223.684 185.173 223.994 185.173 224.362V228H184.323V224.558C184.323 224.297 184.282 224.082 184.201 223.913C184.123 223.741 184.002 223.612 183.84 223.527C183.677 223.439 183.472 223.396 183.224 223.396C182.98 223.396 182.767 223.451 182.585 223.562C182.402 223.672 182.261 223.82 182.16 224.006C182.059 224.188 182.009 224.392 182.009 224.616V228H181.159V224.426C181.159 224.217 181.113 224.037 181.022 223.884C180.934 223.728 180.807 223.607 180.641 223.522C180.479 223.438 180.287 223.396 180.065 223.396C179.837 223.396 179.631 223.456 179.445 223.576C179.263 223.697 179.118 223.859 179.011 224.064C178.906 224.266 178.854 224.491 178.854 224.738V228H178.005Z" fill="#858E9B"/>
<defs>
<filter id="filter0_d_8_3468" x="7.96064" y="186.961" width="76.0787" height="76.0787" filterUnits="userSpaceOnUse" color-interpolation-filters="sRGB">
<feFlood flood-opacity="0" result="BackgroundImageFix"/>
<feColorMatrix in="SourceAlpha" type="matrix" values="0 0 0 0 0 0 0 0 0 0 0 0 0 0 0 0 0 0 127 0" result="hardAlpha"/>
<feOffset/>
<feGaussianBlur stdDeviation="7.51968"/>
<feComposite in2="hardAlpha" operator="out"/>
<feColorMatrix type="matrix" values="0 0 0 0 0 0 0 0 0 0 0 0 0 0 0 0 0 0 0.5 0"/>
<feBlend mode="normal" in2="BackgroundImageFix" result="effect1_dropShadow_8_3468"/>
<feBlend mode="normal" in="SourceGraphic" in2="effect1_dropShadow_8_3468" result="shape"/>
</filter>
</defs>
</svg>
