<svg width="14" height="20" viewBox="0 0 14 20" fill="none" xmlns="http://www.w3.org/2000/svg">
<path d="M5.51806 4.39356C6.22974 4.00191 6.91589 4.06119 7.56884 4.51856C7.78358 4.66899 7.96988 4.85988 8.16455 5.03711C8.21148 5.08017 8.24622 5.14084 8.2749 5.19922C8.56476 5.78993 8.84983 6.38307 9.14013 6.97364C9.44548 7.59517 9.75314 8.21538 10.063 8.83399C10.0685 8.84509 10.0761 8.85514 10.0854 8.86328C10.0948 8.87144 10.1059 8.87792 10.1177 8.88184C10.4675 8.94671 10.8176 9.01174 11.1685 9.07032C11.6832 9.15615 12.1999 9.23316 12.7144 9.32032C13.1304 9.39108 13.4459 9.75201 13.4663 10.167C13.4859 10.5688 13.158 10.9618 12.7495 11.0342C12.5517 11.0691 12.3604 11.0346 12.1694 10.9961C11.2613 10.8121 10.3547 10.6244 9.44677 10.4414C9.28565 10.4089 9.12679 10.3745 8.99072 10.2754C8.8694 10.1879 8.77103 10.0725 8.70263 9.93946C8.46304 9.47345 8.22548 9.0061 7.98779 8.53907C7.96948 8.50333 7.95209 8.46655 7.93408 8.43067L7.91259 8.43262C7.86589 8.6102 7.8132 8.78678 7.77294 8.96582C7.63063 9.59818 7.49284 10.2315 7.35302 10.8643C7.3305 10.9656 7.34678 11.0491 7.42333 11.1309C8.25187 12.0138 9.07859 12.8992 9.90283 13.7861C10.0955 13.9891 10.2025 14.2592 10.2007 14.5391C10.2039 15.9889 10.2039 17.4388 10.2007 18.8887C10.1995 19.3976 9.79565 19.8297 9.28466 19.8838C8.78305 19.9368 8.35603 19.6907 8.17333 19.2432C8.11901 19.1101 8.1001 18.9712 8.10009 18.8281C8.10117 17.737 8.10097 16.6458 8.10107 15.5547C8.10276 15.5066 8.09417 15.4585 8.07568 15.4141C8.05715 15.3696 8.02902 15.3295 7.99365 15.2969C7.18455 14.4905 6.37784 13.6817 5.57275 12.8711C5.54082 12.839 5.51249 12.8025 5.48291 12.7686L5.45947 12.7813C5.43442 12.9195 5.40595 13.0576 5.38427 13.1963C5.34137 13.4707 5.30565 13.7467 5.26025 14.0205C5.16667 14.5858 5.06852 15.1502 4.97216 15.7148C4.93466 15.9346 4.83563 16.1253 4.69091 16.293C4.27105 16.7812 3.85101 17.2697 3.43115 17.7588C2.88919 18.3878 2.35172 19.0199 1.80419 19.6436C1.52941 19.9565 1.17294 20.0664 0.770014 19.9609C0.376642 19.8584 0.124248 19.5947 0.02978 19.1982C-0.0505181 18.8601 0.0335201 18.5544 0.258296 18.29C0.810378 17.6414 1.36364 16.9938 1.91748 16.3467C2.08381 16.1518 2.25167 15.9581 2.41259 15.7588C2.44628 15.7172 2.45966 15.654 2.47021 15.5986C2.5254 15.3058 2.57639 15.0125 2.62939 14.7207C2.78858 13.8427 2.95394 12.9661 3.10595 12.0869C3.28914 11.027 3.50724 9.97463 3.76025 8.92969C3.87743 8.44632 3.97954 7.96013 4.0913 7.47559C4.10873 7.39959 4.13443 7.32527 4.15478 7.25C4.16054 7.22816 4.16205 7.20446 4.16845 7.16211C4.11311 7.19482 4.07491 7.21944 4.03564 7.24121C3.82872 7.35595 3.62088 7.47013 3.41357 7.58399C3.33898 7.62404 3.27839 7.6864 3.23974 7.76172C2.82102 8.53882 2.39713 9.31309 1.97607 10.0889C1.9055 10.2191 1.8508 10.3592 1.77099 10.4844C1.45954 10.9736 0.720303 11.016 0.34228 10.5772C0.0822597 10.2752 0.0261674 9.8538 0.265132 9.46875C0.528787 9.04397 0.756601 8.59827 0.997553 8.16016C1.27193 7.65984 1.54457 7.15862 1.81494 6.65625C1.93166 6.43729 2.11099 6.25803 2.32958 6.14063C3.39291 5.55897 4.45571 4.97658 5.51806 4.39356ZM7.38623 2.68644e-06C8.4745 0.00241695 9.35258 0.872078 9.35009 1.94532C9.34732 3.01004 8.46122 3.87421 7.37451 3.87207C6.29132 3.86973 5.40883 2.99457 5.41455 1.92969C5.42049 0.85901 6.30011 -0.00175478 7.38623 2.68644e-06Z" fill="#8A8F96"/>
</svg>
